<svg width="559" height="340" viewBox="0 0 559 340" fill="none" xmlns="http://www.w3.org/2000/svg">
<path d="M511.87 152.841C512.472 153.444 513.827 154.197 515.935 155.1C518.345 156.004 519.85 156.756 520.453 157.359C521.959 158.563 521.959 159.919 520.453 161.425C519.248 162.629 518.345 163.984 517.742 165.49C517.441 166.394 516.688 168.05 515.484 170.459C514.279 172.568 512.924 174.977 511.418 177.687C510.213 180.097 509.009 182.506 507.804 184.915C506.599 187.023 505.846 188.68 505.545 189.885C504.943 191.39 504.19 192.896 503.286 194.402C502.684 195.908 501.781 197.414 500.576 198.919C499.07 201.028 497.865 203.136 496.962 205.244C496.058 207.352 494.854 209.46 493.348 211.568C492.746 212.171 492.444 212.924 492.444 213.827C491.842 215.333 491.089 216.839 490.186 218.345C489.583 219.85 488.83 221.356 487.927 222.862L487.024 224.217C486.722 226.627 485.819 228.885 484.313 230.993C483.108 232.8 482.054 234.909 481.151 237.318C478.139 244.847 476.633 251.924 476.633 258.55C476.633 262.164 477.537 264.874 479.344 266.681L480.247 268.488C480.247 268.79 480.097 269.241 479.796 269.844C479.494 270.446 479.043 270.747 478.44 270.747C477.537 270.747 476.784 270.446 476.182 269.844C471.363 268.037 468.351 264.874 467.147 260.357C465.641 256.743 464.888 253.43 464.888 250.419V243.642V235.963L466.243 232.8C466.846 232.499 467.147 231.596 467.147 230.09C466.846 229.186 466.996 228.434 467.598 227.831C468.201 227.229 468.502 226.777 468.502 226.476C468.201 224.368 468.502 222.561 469.405 221.055C470.008 220.152 470.309 219.399 470.309 218.796C470.309 217.893 470.61 216.989 471.212 216.086C471.815 213.677 472.568 212.02 473.471 211.117C474.073 210.213 474.224 209.46 473.923 208.858C473.923 207.954 474.224 207.051 474.826 206.147C475.429 205.545 475.88 204.792 476.182 203.889C476.784 202.985 477.386 202.232 477.989 201.63C478.591 201.028 478.892 200.275 478.892 199.371C478.591 198.167 479.043 196.36 480.247 193.95C481.452 191.842 482.355 189.734 482.958 187.626C483.861 185.518 484.915 183.409 486.12 181.301L491.993 168.201L498.317 155.1C499.221 153.594 500.726 152.54 502.835 151.938C505.545 151.335 507.653 151.185 509.159 151.486L511.87 152.841ZM499.672 172.266C499.974 171.363 499.974 171.062 499.672 171.363C499.371 171.664 498.92 172.116 498.317 172.718C497.715 173.32 497.263 173.772 496.962 174.073C496.661 174.375 496.811 174.073 497.414 173.17C498.016 171.664 498.92 170.309 500.124 169.104C501.63 167.598 502.684 165.942 503.286 164.135L500.576 165.49C500.275 165.791 498.769 168.502 496.058 173.622C493.348 178.44 490.336 184.012 487.024 190.336C484.012 196.661 481.151 203.136 478.44 209.761C476.031 216.086 474.826 220.904 474.826 224.217C475.429 224.82 475.88 224.97 476.182 224.669C476.483 224.368 476.633 224.067 476.633 223.766C478.44 216.236 481.603 207.954 486.12 198.919C490.637 189.583 495.155 180.699 499.672 172.266ZM520.001 123.026C519.399 122.725 519.549 121.219 520.453 118.509C521.356 115.497 522.41 113.238 523.615 111.732L524.518 109.925C524.82 109.624 525.121 108.871 525.422 107.667C525.723 106.462 526.175 105.559 526.777 104.956C528.283 102.246 529.638 99.5352 530.843 96.8247C532.349 94.1143 533.855 91.4038 535.36 88.6933C536.866 85.9828 538.071 83.4229 538.974 81.0136C539.276 80.1101 540.33 79.6584 542.137 79.6584H545.751C546.052 79.6584 546.353 79.809 546.654 80.1101C546.955 80.1101 547.407 80.1101 548.009 80.1101C549.214 81.0136 550.419 81.9171 551.623 82.8206C552.828 83.4229 553.882 84.3264 554.785 85.5311L557.044 88.6933C558.249 90.5003 558.399 92.3073 557.496 94.1143C556.291 96.5236 554.936 98.3306 553.43 99.5352C552.527 100.439 552.075 101.041 552.075 101.342C551.172 103.149 549.967 104.806 548.461 106.311C547.256 107.516 546.052 108.871 544.847 110.377C543.944 111.883 543.191 112.786 542.588 113.088C542.287 113.088 541.534 113.69 540.33 114.895C539.727 115.497 538.974 115.949 538.071 116.25C537.469 116.551 536.866 117.003 536.264 117.605C535.059 119.111 533.855 120.316 532.65 121.219C531.445 122.123 529.638 123.026 527.229 123.93C529.036 121.52 529.638 120.165 529.036 119.864C528.735 119.261 527.831 119.261 526.325 119.864C525.121 120.165 523.766 120.767 522.26 121.671C521.055 122.574 520.302 123.026 520.001 123.026ZM539.878 95.0178C540.781 93.512 541.534 92.0061 542.137 90.5003C543.04 88.6933 543.793 87.0369 544.395 85.5311H543.04C542.137 86.4346 541.083 88.091 539.878 90.5003C539.276 92.0061 538.523 93.512 537.619 95.0178C537.017 96.2224 536.264 97.5777 535.36 99.0835C534.758 99.6858 534.758 100.288 535.36 100.89C535.36 100.89 535.21 101.041 534.909 101.342H535.36V100.89C535.963 99.987 536.716 99.0835 537.619 98.18C538.523 97.2765 539.276 96.2224 539.878 95.0178Z" fill="#F4F4F4"/>
<path d="M451.731 163.683C453.237 164.587 454.592 165.49 455.797 166.394C457.302 167.297 458.808 168.351 460.314 169.556C463.024 171.363 464.38 173.923 464.38 177.236V179.946C462.874 182.355 461.669 184.765 460.766 187.174C459.862 189.282 458.206 191.24 455.797 193.047C454.893 193.95 454.291 195.004 453.99 196.209C453.99 198.317 453.086 200.425 451.279 202.533C450.677 203.738 450.225 205.093 449.924 206.599C449.623 207.804 449.171 209.159 448.569 210.665C448.569 212.472 448.267 214.279 447.665 216.086C447.364 217.592 447.063 219.248 446.762 221.055C446.762 223.163 446.611 225.271 446.31 227.379C446.009 229.488 446.159 231.596 446.762 233.704C446.762 236.113 446.611 237.77 446.31 238.673L447.213 245.901C447.515 247.407 448.87 248.461 451.279 249.063H454.893L458.959 247.708C460.465 247.708 461.669 247.859 462.573 248.16C462.573 249.364 462.422 250.268 462.121 250.87C460.916 253.28 459.712 254.785 458.507 255.388C456.098 257.496 452.935 257.646 449.02 255.839C447.816 255.237 446.46 254.635 444.955 254.032C443.449 253.731 442.395 252.978 441.792 251.774C440.588 250.268 439.534 248.913 438.63 247.708C437.727 246.503 436.823 244.998 435.92 243.191C435.016 241.986 434.113 240.329 433.209 238.221C432.607 236.113 432.155 234.306 431.854 232.8C430.95 228.885 430.348 224.97 430.047 221.055C429.746 217.14 429.445 213.225 429.144 209.31C429.746 207.503 430.047 206.147 430.047 205.244C429.746 204.642 428.541 205.846 426.433 208.858C424.325 211.869 422.217 214.731 420.109 217.441L416.946 221.055C413.031 225.271 408.664 229.939 403.846 235.059C399.027 240.179 394.51 244.094 390.293 246.805C389.992 247.106 388.938 247.708 387.131 248.612C385.324 249.515 384.27 249.816 383.969 249.515C383.367 249.515 382.162 248.913 380.355 247.708L377.644 245.901V245.449C373.428 240.631 371.772 234.909 372.675 228.283C373.278 225.874 373.729 223.615 374.03 221.507C374.332 219.097 375.084 216.688 376.289 214.279C378.698 208.858 381.56 203.587 384.872 198.468C388.185 193.348 391.799 188.379 395.714 183.56C397.521 182.054 398.726 180.398 399.328 178.591C401.135 176.483 402.792 174.525 404.297 172.718C406.104 170.61 408.213 168.652 410.622 166.845C412.128 165.641 413.182 164.436 413.784 163.231C414.688 162.027 415.892 160.822 417.398 159.617L420.56 156.907C421.163 156.305 421.765 155.853 422.367 155.552C422.97 155.251 423.723 154.949 424.626 154.648L431.402 153.293C432.607 152.691 433.812 152.39 435.016 152.39C436.221 152.39 437.576 152.39 439.082 152.39C440.588 152.691 442.094 153.142 443.599 153.745C445.406 154.046 447.063 154.799 448.569 156.003C450.677 158.112 451.58 160.37 451.279 162.78C451.279 162.78 451.43 163.081 451.731 163.683ZM435.92 180.85C435.92 179.645 436.07 178.591 436.371 177.687C436.974 176.784 437.576 175.73 438.178 174.525C438.178 173.923 438.028 173.471 437.727 173.17H437.275H436.823C435.317 173.772 434.113 174.375 433.209 174.977C432.306 175.579 431.252 176.332 430.047 177.236C427.638 179.645 425.078 182.205 422.367 184.915C419.958 187.325 417.549 189.884 415.139 192.595C413.634 195.004 411.827 197.263 409.718 199.371C407.911 201.178 406.255 203.286 404.749 205.696C403.545 206.9 402.49 208.105 401.587 209.31C400.683 210.514 399.78 211.869 398.876 213.375C397.973 215.182 396.919 216.989 395.714 218.796C394.51 220.603 393.456 222.561 392.552 224.669L389.39 229.638C389.39 230.542 389.239 231.445 388.938 232.349C388.938 232.951 389.239 233.704 389.842 234.607C390.444 234.607 390.896 234.457 391.197 234.156C392.703 232.951 394.058 231.746 395.263 230.542C396.768 229.337 398.425 228.132 400.232 226.928L405.201 222.862C408.514 219.248 410.923 216.538 412.429 214.731C413.935 212.622 414.838 211.418 415.139 211.117C416.043 209.912 416.796 208.858 417.398 207.954C418.302 207.051 419.055 205.997 419.657 204.792C422.066 202.383 424.024 199.973 425.53 197.564C427.337 195.155 429.294 192.746 431.402 190.336C432.306 189.132 432.908 187.927 433.209 186.722C433.51 185.518 433.962 184.162 434.564 182.657L435.92 180.85ZM379.903 228.735C380.505 227.53 381.108 226.476 381.71 225.572C382.312 224.368 382.764 223.163 383.065 221.958C388.787 210.213 396.166 199.221 405.201 188.981C405.803 188.379 405.954 187.776 405.653 187.174C405.653 186.572 405.954 185.969 406.556 185.367C405.954 185.367 405.05 185.668 403.846 186.271C402.039 189.282 399.027 192.595 394.811 196.209C395.112 196.811 394.961 197.414 394.359 198.016L390.745 202.533L383.969 212.924L379.451 222.862C377.644 226.175 376.741 229.638 376.741 233.252C376.44 233.252 376.289 233.704 376.289 234.607C376.289 234.607 376.44 234.758 376.741 235.059V235.511C377.644 235.511 378.096 235.36 378.096 235.059C378.698 234.156 379 233.102 379 231.897C379 230.692 379.301 229.638 379.903 228.735ZM423.271 208.406C423.873 207.804 423.873 207.503 423.271 207.503C423.873 206.298 424.024 205.394 423.723 204.792C423.723 205.394 423.421 205.997 422.819 206.599C422.518 207.201 422.066 207.804 421.464 208.406C421.765 208.105 422.217 207.954 422.819 207.954C422.518 208.557 421.765 209.46 420.56 210.665C420.56 210.062 420.56 209.611 420.56 209.31C420.861 209.008 421.012 208.707 421.012 208.406C420.711 209.008 419.958 209.912 418.753 211.117C419.054 211.117 419.205 211.117 419.205 211.117C419.506 210.815 419.807 210.665 420.109 210.665L419.205 212.02H418.302V211.568C414.989 215.483 411.676 219.248 408.363 222.862C405.352 226.476 403.846 228.132 403.846 227.831V228.735C403.545 228.735 403.545 228.885 403.846 229.186C405.653 228.283 407.309 227.078 408.815 225.572C410.622 223.765 411.676 222.711 411.977 222.41C412.579 222.109 413.634 220.754 415.139 218.344L423.271 208.406ZM447.665 195.305C444.653 204.039 442.846 211.568 442.244 217.893C441.642 224.217 441.491 229.488 441.792 233.704L442.244 233.252C442.545 232.951 442.696 232.499 442.696 231.897C442.696 226.175 442.997 221.055 443.599 216.538C444.503 211.719 445.557 206.75 446.762 201.63C447.364 200.425 447.816 199.522 448.117 198.919C448.719 198.016 448.719 196.811 448.117 195.305H447.665ZM382.614 207.503C382.011 208.105 382.162 208.406 383.065 208.406C383.668 209.008 383.969 208.858 383.969 207.954C384.571 207.352 385.174 206.449 385.776 205.244C385.174 204.642 384.872 204.039 384.872 203.437L383.517 204.34C383.818 204.943 383.818 205.545 383.517 206.147C383.216 206.449 382.915 206.9 382.614 207.503ZM448.117 195.305C449.02 194.402 449.623 193.498 449.924 192.595C450.526 191.39 451.128 190.186 451.731 188.981V188.529C451.731 188.529 451.58 188.529 451.279 188.529L448.117 194.854V195.305ZM407.008 183.56C407.008 184.162 406.857 184.765 406.556 185.367L407.911 184.012C409.116 183.409 409.116 183.108 407.911 183.108C407.61 183.108 407.46 183.259 407.46 183.56C407.46 183.56 407.309 183.56 407.008 183.56Z" fill="#F4F4F4"/>
<path d="M386.411 159.617C385.809 161.123 385.357 162.78 385.056 164.587C384.755 166.394 384.303 168.05 383.701 169.556C383.098 170.459 383.098 171.363 383.701 172.266C384.303 173.772 384.604 175.127 384.604 176.332C384.604 177.537 384.454 178.892 384.152 180.398C384.152 182.506 383.249 184.162 381.442 185.367C379.936 186.27 378.43 187.475 376.924 188.981C375.419 190.186 373.762 191.24 371.955 192.143C366.835 195.757 362.318 198.769 358.403 201.178C354.789 203.286 350.422 205.695 345.302 208.406C343.796 209.309 342.893 209.912 342.592 210.213C340.785 211.719 338.827 213.225 336.719 214.73C334.611 215.935 332.503 217.29 330.395 218.796L328.136 220.151C326.329 220.754 324.672 221.657 323.167 222.862C321.661 223.765 320.155 224.819 318.649 226.024L309.162 234.155C308.259 235.059 307.807 235.812 307.807 236.414C312.024 235.812 316.089 235.36 320.004 235.059C323.919 234.758 327.985 234.758 332.202 235.059C333.707 235.36 335.063 235.511 336.267 235.511C337.773 235.511 339.279 235.812 340.785 236.414C341.387 236.414 341.839 236.565 342.14 236.866C342.742 236.866 343.345 236.866 343.947 236.866C345.453 236.866 346.959 237.017 348.464 237.318C350.271 237.619 351.928 238.071 353.434 238.673C357.048 239.576 360.963 241.534 365.179 244.546C367.588 246.654 369.245 249.063 370.148 251.774C370.148 252.075 369.998 252.225 369.696 252.225C369.696 252.527 369.696 252.828 369.696 253.129C369.696 254.032 369.245 254.484 368.341 254.484C368.04 254.183 367.588 254.032 366.986 254.032C364.577 252.527 362.167 251.623 359.758 251.322C357.349 251.021 354.789 250.72 352.078 250.418C349.067 249.816 346.055 249.515 343.043 249.515C340.333 249.515 337.472 249.515 334.46 249.515C332.653 249.515 330.846 249.515 329.039 249.515C327.533 249.515 326.028 249.665 324.522 249.967C322.414 250.268 320.306 250.418 318.197 250.418C316.39 250.72 314.282 250.87 311.873 250.87C308.861 250.87 306.603 251.171 305.097 251.774C303.29 252.376 301.483 252.828 299.676 253.129C297.869 253.731 296.212 254.484 294.707 255.388C293.803 255.99 292.297 256.291 290.189 256.291C287.78 256.291 286.123 255.388 285.22 253.581C284.316 252.677 283.262 251.021 282.058 248.611C281.455 247.106 281.305 246.051 281.606 245.449C281.606 244.847 282.359 244.244 283.865 243.642L286.575 242.287C287.177 241.685 287.177 241.233 286.575 240.932C285.672 240.329 285.37 239.727 285.672 239.125C285.672 238.221 285.973 237.468 286.575 236.866C287.177 235.36 287.93 234.005 288.834 232.8C289.737 231.596 290.641 230.391 291.544 229.186C293.05 227.379 295.008 225.422 297.417 223.314C299.826 221.205 302.085 219.549 304.193 218.344H304.645H305.097C305.097 220.453 305.398 221.205 306 220.603C307.506 219.097 309.162 217.742 310.969 216.537C312.776 215.333 314.433 214.128 315.939 212.923C318.95 211.116 321.661 209.159 324.07 207.051C326.781 204.943 329.491 202.834 332.202 200.726H332.653C332.352 200.726 332.202 200.576 332.202 200.275C332.202 200.275 332.051 200.124 331.75 199.823C330.545 199.823 329.943 199.672 329.943 199.371C329.943 198.769 330.244 198.166 330.846 197.564C331.449 196.962 332.804 196.209 334.912 195.305C337.02 194.402 338.375 193.649 338.978 193.047C339.58 192.745 340.785 192.143 342.592 191.24C344.7 190.035 346.808 188.981 348.916 188.077C351.024 186.873 352.982 185.819 354.789 184.915C356.596 184.012 357.8 183.259 358.403 182.656V182.205C358.403 182.205 357.198 182.355 354.789 182.656C352.681 182.958 350.271 183.409 347.561 184.012C344.85 184.313 342.291 184.614 339.881 184.915C337.472 185.216 336.117 185.367 335.815 185.367H332.202C327.383 185.367 323.016 184.313 319.101 182.205C317.896 181.602 316.993 181.301 316.39 181.301C314.282 177.687 312.776 173.471 311.873 168.652C311.271 164.737 313.078 162.478 317.294 161.876C318.8 161.876 319.703 162.629 320.004 164.135L320.908 165.942C320.908 166.845 321.36 167.297 322.263 167.297C323.167 168.201 324.371 168.652 325.877 168.652C330.093 169.255 334.008 169.255 337.622 168.652C342.742 168.05 348.464 167.448 354.789 166.845C361.113 166.243 366.534 165.189 371.052 163.683C372.256 163.382 373.31 163.081 374.214 162.78C375.117 162.177 375.87 161.575 376.473 160.973C379.183 159.166 381.894 157.81 384.604 156.907C385.809 156.907 386.411 157.359 386.411 158.262V159.617ZM308.711 214.73C308.41 214.73 308.259 214.58 308.259 214.279C308.259 213.977 308.41 213.827 308.711 213.827C309.012 213.526 309.313 213.375 309.614 213.375C310.217 212.472 310.969 211.568 311.873 210.665C313.078 209.761 313.831 209.159 314.132 208.858C314.734 208.557 316.39 207.502 319.101 205.695C322.113 203.587 323.919 202.684 324.522 202.985C325.425 202.985 325.877 202.985 325.877 202.985C325.877 202.985 325.425 203.286 324.522 203.888C323.919 204.491 323.016 205.093 321.811 205.695C320.908 206.298 320.004 207.051 319.101 207.954C318.197 208.557 317.746 208.858 317.746 208.858C317.143 209.46 315.939 210.364 314.132 211.568C312.626 212.773 311.271 213.526 310.066 213.827C310.066 214.128 309.915 214.279 309.614 214.279C309.614 214.58 309.313 214.73 308.711 214.73ZM301.483 224.217C302.687 223.916 303.591 223.012 304.193 221.507C302.386 221.507 301.483 222.41 301.483 224.217ZM301.483 224.217C300.88 224.217 300.429 224.368 300.127 224.669C300.127 224.669 299.977 224.669 299.676 224.669C299.375 224.669 299.224 224.819 299.224 225.121V225.572C299.525 225.873 299.826 225.873 300.127 225.572L301.483 224.217Z" fill="#F4F4F4"/>
<path d="M277.032 163.683C278.538 164.587 279.893 165.49 281.098 166.394C282.604 167.297 284.109 168.351 285.615 169.556C288.326 171.363 289.681 173.923 289.681 177.236V179.946C288.175 182.355 286.971 184.765 286.067 187.174C285.164 189.282 283.507 191.24 281.098 193.047C280.194 193.95 279.592 195.004 279.291 196.209C279.291 198.317 278.387 200.425 276.58 202.533C275.978 203.738 275.526 205.093 275.225 206.599C274.924 207.804 274.472 209.159 273.87 210.665C273.87 212.472 273.569 214.279 272.966 216.086C272.665 217.592 272.364 219.248 272.063 221.055C272.063 223.163 271.912 225.271 271.611 227.379C271.31 229.488 271.461 231.596 272.063 233.704C272.063 236.113 271.912 237.77 271.611 238.673L272.515 245.901C272.816 247.407 274.171 248.461 276.58 249.063H280.194L284.26 247.708C285.766 247.708 286.971 247.859 287.874 248.16C287.874 249.364 287.723 250.268 287.422 250.87C286.218 253.28 285.013 254.785 283.808 255.388C281.399 257.496 278.237 257.646 274.322 255.839C273.117 255.237 271.762 254.635 270.256 254.032C268.75 253.731 267.696 252.978 267.094 251.774C265.889 250.268 264.835 248.913 263.931 247.708C263.028 246.503 262.124 244.998 261.221 243.191C260.317 241.986 259.414 240.329 258.51 238.221C257.908 236.113 257.456 234.306 257.155 232.8C256.252 228.885 255.649 224.97 255.348 221.055C255.047 217.14 254.746 213.225 254.445 209.31C255.047 207.503 255.348 206.147 255.348 205.244C255.047 204.642 253.842 205.846 251.734 208.858C249.626 211.869 247.518 214.731 245.41 217.441L242.248 221.055C238.332 225.271 233.966 229.939 229.147 235.059C224.328 240.179 219.811 244.094 215.595 246.805C215.293 247.106 214.239 247.708 212.432 248.612C210.625 249.515 209.571 249.816 209.27 249.515C208.668 249.515 207.463 248.913 205.656 247.708L202.946 245.901V245.449C198.729 240.631 197.073 234.909 197.976 228.283C198.579 225.874 199.031 223.615 199.332 221.507C199.633 219.097 200.386 216.688 201.59 214.279C204 208.858 206.861 203.587 210.174 198.468C213.486 193.348 217.1 188.379 221.016 183.56C222.823 182.054 224.027 180.398 224.629 178.591C226.436 176.483 228.093 174.525 229.599 172.718C231.406 170.61 233.514 168.652 235.923 166.845C237.429 165.641 238.483 164.436 239.085 163.231C239.989 162.027 241.194 160.822 242.699 159.617L245.862 156.907C246.464 156.305 247.066 155.853 247.669 155.552C248.271 155.251 249.024 154.949 249.927 154.648L256.704 153.293C257.908 152.691 259.113 152.39 260.317 152.39C261.522 152.39 262.877 152.39 264.383 152.39C265.889 152.691 267.395 153.142 268.901 153.745C270.708 154.046 272.364 154.799 273.87 156.003C275.978 158.112 276.882 160.37 276.58 162.78C276.58 162.78 276.731 163.081 277.032 163.683ZM261.221 180.85C261.221 179.645 261.372 178.591 261.673 177.687C262.275 176.784 262.877 175.73 263.48 174.525C263.48 173.923 263.329 173.471 263.028 173.17H262.576H262.124C260.619 173.772 259.414 174.375 258.51 174.977C257.607 175.579 256.553 176.332 255.348 177.236C252.939 179.645 250.379 182.205 247.669 184.915C245.259 187.325 242.85 189.884 240.441 192.595C238.935 195.004 237.128 197.263 235.02 199.371C233.213 201.178 231.556 203.286 230.05 205.696C228.846 206.9 227.792 208.105 226.888 209.31C225.985 210.514 225.081 211.869 224.178 213.375C223.274 215.182 222.22 216.989 221.016 218.796C219.811 220.603 218.757 222.561 217.853 224.669L214.691 229.638C214.691 230.542 214.54 231.445 214.239 232.349C214.239 232.951 214.54 233.704 215.143 234.607C215.745 234.607 216.197 234.457 216.498 234.156C218.004 232.951 219.359 231.746 220.564 230.542C222.07 229.337 223.726 228.132 225.533 226.928L230.502 222.862C233.815 219.248 236.224 216.538 237.73 214.731C239.236 212.622 240.139 211.418 240.441 211.117C241.344 209.912 242.097 208.858 242.699 207.954C243.603 207.051 244.356 205.997 244.958 204.792C247.367 202.383 249.325 199.973 250.831 197.564C252.638 195.155 254.595 192.746 256.704 190.336C257.607 189.132 258.209 187.927 258.51 186.722C258.812 185.518 259.263 184.162 259.866 182.657L261.221 180.85ZM205.204 228.735C205.807 227.53 206.409 226.476 207.011 225.572C207.614 224.368 208.065 223.163 208.367 221.958C214.089 210.213 221.467 199.221 230.502 188.981C231.105 188.379 231.255 187.776 230.954 187.174C230.954 186.572 231.255 185.969 231.857 185.367C231.255 185.367 230.352 185.668 229.147 186.271C227.34 189.282 224.328 192.595 220.112 196.209C220.413 196.811 220.263 197.414 219.66 198.016L216.046 202.533L209.27 212.924L204.753 222.862C202.946 226.175 202.042 229.638 202.042 233.252C201.741 233.252 201.59 233.704 201.59 234.607C201.59 234.607 201.741 234.758 202.042 235.059V235.511C202.946 235.511 203.397 235.36 203.397 235.059C204 234.156 204.301 233.102 204.301 231.897C204.301 230.692 204.602 229.638 205.204 228.735ZM248.572 208.406C249.174 207.804 249.174 207.503 248.572 207.503C249.174 206.298 249.325 205.394 249.024 204.792C249.024 205.394 248.723 205.997 248.12 206.599C247.819 207.201 247.367 207.804 246.765 208.406C247.066 208.105 247.518 207.954 248.12 207.954C247.819 208.557 247.066 209.46 245.862 210.665C245.862 210.062 245.862 209.611 245.862 209.31C246.163 209.008 246.313 208.707 246.313 208.406C246.012 209.008 245.259 209.912 244.055 211.117C244.356 211.117 244.506 211.117 244.506 211.117C244.808 210.815 245.109 210.665 245.41 210.665L244.506 212.02H243.603V211.568C240.29 215.483 236.977 219.248 233.664 222.862C230.653 226.476 229.147 228.132 229.147 227.831V228.735C228.846 228.735 228.846 228.885 229.147 229.186C230.954 228.283 232.61 227.078 234.116 225.572C235.923 223.765 236.977 222.711 237.278 222.41C237.881 222.109 238.935 220.754 240.441 218.344L248.572 208.406ZM272.966 195.305C269.955 204.039 268.148 211.568 267.545 217.893C266.943 224.217 266.793 229.488 267.094 233.704L267.545 233.252C267.847 232.951 267.997 232.499 267.997 231.897C267.997 226.175 268.298 221.055 268.901 216.538C269.804 211.719 270.858 206.75 272.063 201.63C272.665 200.425 273.117 199.522 273.418 198.919C274.02 198.016 274.02 196.811 273.418 195.305H272.966ZM207.915 207.503C207.313 208.105 207.463 208.406 208.367 208.406C208.969 209.008 209.27 208.858 209.27 207.954C209.872 207.352 210.475 206.449 211.077 205.244C210.475 204.642 210.174 204.039 210.174 203.437L208.818 204.34C209.12 204.943 209.12 205.545 208.818 206.147C208.517 206.449 208.216 206.9 207.915 207.503ZM273.418 195.305C274.322 194.402 274.924 193.498 275.225 192.595C275.827 191.39 276.43 190.186 277.032 188.981V188.529C277.032 188.529 276.882 188.529 276.58 188.529L273.418 194.854V195.305ZM232.309 183.56C232.309 184.162 232.159 184.765 231.857 185.367L233.213 184.012C234.417 183.409 234.417 183.108 233.213 183.108C232.912 183.108 232.761 183.259 232.761 183.56C232.761 183.56 232.61 183.56 232.309 183.56Z" fill="#F4F4F4"/>
<path d="M354.972 283.847C356.177 283.847 356.328 284.299 355.424 285.203C354.822 289.118 353.918 293.033 352.714 296.948C351.509 300.863 349.702 304.477 347.293 307.79C345.787 309.296 345.034 311.103 345.034 313.211C345.034 314.717 344.582 315.921 343.679 316.825C342.173 318.933 340.818 320.891 339.613 322.698C338.408 324.505 336.752 326.161 334.644 327.667C331.933 330.076 329.072 332.034 326.061 333.54C323.049 335.045 319.887 336.551 316.574 338.057C315.67 338.659 314.616 338.81 313.412 338.509C312.508 338.509 311.454 338.659 310.249 338.961C306.635 339.864 303.323 340.015 300.311 339.412C299.408 339.111 298.353 338.961 297.149 338.961C296.245 339.262 295.342 339.412 294.438 339.412C292.932 339.412 290.674 338.961 287.662 338.057C284.65 337.455 282.542 337.154 281.338 337.154C279.832 337.154 278.627 337.003 277.724 336.702C274.712 335.798 271.7 334.744 268.689 333.54C265.978 332.636 262.967 331.733 259.654 330.829C258.148 330.227 255.136 329.323 250.619 328.119C246.101 326.914 242.939 325.86 241.132 324.956C238.723 323.752 236.314 322.698 233.904 321.794C231.796 320.891 229.839 319.535 228.032 317.728C227.429 317.126 226.676 316.825 225.773 316.825C219.147 314.114 212.973 310.802 207.251 306.887C201.529 302.971 195.656 299.207 189.633 295.593C184.814 293.184 179.996 290.172 175.177 286.558L171.563 284.751C168.25 283.546 165.841 282.04 164.335 280.233C162.528 279.029 161.173 278.276 160.27 277.975C158.463 277.071 156.806 275.867 155.3 274.361C153.795 272.253 151.536 270.446 148.524 268.94L140.393 263.067C137.08 260.658 133.918 257.947 130.906 254.936C127.894 251.924 124.732 249.063 121.419 246.352C117.504 243.04 113.89 239.576 110.577 235.962C107.265 232.348 104.554 228.132 102.446 223.313C101.543 221.506 100.488 220.001 99.2838 218.796C99.2838 218.796 98.8321 218.796 97.9286 218.796L95.6699 222.862C95.0675 224.669 94.4652 226.626 93.8629 228.734C93.2605 230.541 92.2065 232.348 90.7006 234.155C90.3995 234.456 89.9477 235.661 89.3454 237.769L87.9902 242.287C87.3878 243.793 86.6349 245.298 85.7314 246.804C84.8279 248.31 84.3762 250.117 84.3762 252.225C84.075 254.032 83.6233 255.689 83.021 257.194C82.4186 259.001 81.8163 260.808 81.214 262.615L79.8587 268.036C78.0517 271.349 77.7506 275.114 78.9552 279.33C79.2564 280.535 79.407 282.191 79.407 284.299C79.407 285.504 78.6541 286.106 77.1482 286.106H75.3413C72.932 285.203 70.8238 283.998 69.0168 282.492C67.2098 281.288 65.704 279.481 64.4994 277.071C61.4877 270.747 60.5842 264.573 61.7889 258.55C62.3912 255.237 63.1441 252.075 64.0476 249.063C64.9511 246.352 65.8546 243.341 66.7581 240.028C68.2639 235.812 69.7697 231.897 71.2756 228.283C72.7814 224.669 74.2872 220.754 75.793 216.537L79.8587 205.695C79.2564 205.394 78.8046 205.093 78.5035 204.792C78.2023 204.491 77.9012 204.34 77.6 204.34C76.3953 204.34 75.3413 204.491 74.4378 204.792C73.5343 204.792 72.4802 204.792 71.2756 204.792C70.6732 204.792 68.8662 204.942 65.8546 205.244C63.1441 205.244 61.3371 205.093 60.4336 204.792C58.0243 204.189 56.2173 203.888 55.0127 203.888C54.1092 203.587 52.9045 203.437 51.3987 203.437C49.8929 203.437 48.2365 203.437 46.4295 203.437C44.9237 203.135 43.4179 202.533 41.912 201.63C41.912 201.328 41.7615 201.178 41.4603 201.178C41.4603 200.877 41.4603 200.576 41.4603 200.274L41.912 199.823C42.5144 199.823 42.9661 199.823 43.2673 199.823C43.5684 199.521 43.8696 199.371 44.1708 199.371H52.7539C56.9702 199.672 61.1865 199.521 65.4028 198.919C69.9203 198.317 74.2872 197.413 78.5035 196.209C79.1058 196.209 80.3105 195.907 82.1175 195.305C84.2256 195.004 85.7314 193.799 86.6349 191.691L92.9594 179.042L98.8321 165.942C101.241 160.521 103.801 155.25 106.512 150.13C109.222 144.71 111.782 139.138 114.191 133.416C115.697 129.501 117.354 125.736 119.161 122.122C121.269 118.207 123.226 114.292 125.033 110.377C125.636 109.172 126.087 107.967 126.389 106.763C126.991 105.558 127.593 104.354 128.196 103.149L138.134 79.2063C138.736 78.0016 139.339 76.797 139.941 75.5923C140.543 74.0865 140.543 72.5807 139.941 71.0748V70.1713C140.844 63.8469 144.458 61.287 150.783 62.4917C152.289 63.094 153.644 63.6963 154.849 64.2986C156.053 64.5998 157.258 65.2021 158.463 66.1056C161.474 67.9126 163.432 70.3219 164.335 73.3336C164.938 75.4417 164.787 77.2487 163.884 78.7545C162.378 83.8743 160.571 88.8435 158.463 93.6622C156.656 98.1796 154.547 102.697 152.138 107.215C150.03 111.732 147.922 116.249 145.814 120.767C144.007 125.284 141.597 129.651 138.586 133.868C137.381 137.18 135.875 140.192 134.068 142.903C132.562 145.613 131.057 148.625 129.551 151.937L120.516 170.007C119.01 172.417 117.956 174.826 117.354 177.235C117.053 179.343 116.3 181.452 115.095 183.56C115.998 184.162 117.053 184.162 118.257 183.56L131.358 179.042L136.327 176.332C137.833 174.826 139.339 173.772 140.844 173.17C142.651 172.266 144.308 171.513 145.814 170.911C149.127 169.405 152.289 167.749 155.3 165.942C158.312 164.135 161.474 162.177 164.787 160.069C167.498 158.563 170.208 157.057 172.918 155.551C175.93 153.744 178.791 151.937 181.502 150.13C184.814 148.022 187.977 146.065 190.988 144.258C194.301 142.451 197.463 140.343 200.475 137.933C202.583 136.427 204.691 135.072 206.799 133.868C208.908 132.362 211.166 130.856 213.576 129.35C218.394 126.941 222.912 124.381 227.128 121.67C231.344 118.659 235.561 115.497 239.777 112.184L247.005 107.215C249.113 106.01 251.071 104.805 252.878 103.601C254.986 102.095 256.943 100.288 258.75 98.1796C258.449 97.5773 259.654 96.3727 262.364 94.5657C265.075 92.7587 266.731 91.4034 267.333 90.4999C268.839 88.9941 270.195 87.4883 271.399 85.9825C272.604 84.1755 273.809 82.5191 275.013 81.0133C276.519 78.9051 277.874 76.9475 279.079 75.1406C280.585 73.3336 282.091 71.5266 283.596 69.7196C286.909 65.5033 289.62 61.1364 291.728 56.619C293.836 52.1015 295.191 47.2829 295.794 42.1631C296.396 38.8503 296.396 35.688 295.794 32.6764C295.492 29.6647 294.438 26.6531 292.631 23.6415C291.427 21.5333 289.921 20.0275 288.114 19.124C287.813 19.124 287.06 18.8228 285.855 18.2205C285.253 17.9193 283.747 17.6182 281.338 17.317C279.229 17.0159 276.971 16.7147 274.561 16.4135C272.152 15.8112 269.743 15.51 267.333 15.51C265.225 15.2089 263.72 15.2089 262.816 15.51C260.106 16.1123 257.395 16.4135 254.685 16.4135C251.974 16.1124 249.264 16.1124 246.553 16.4135C242.337 17.0159 239.024 17.7688 236.615 18.6723C234.205 19.2746 231.947 19.5757 229.839 19.5757C228.032 19.5757 226.225 19.7263 224.418 20.0275C222.912 20.3287 221.406 20.7804 219.9 21.3827C218.093 21.9851 216.136 22.4368 214.027 22.738C212.22 23.0391 210.564 23.3403 209.058 23.6415L202.282 24.9967C201.379 25.2979 199.27 25.9002 195.958 26.8037C192.946 27.7072 189.633 28.9118 186.019 30.4177C182.706 31.6223 179.394 32.827 176.081 34.0316C173.069 35.2363 170.961 36.2904 169.756 37.1939C168.552 37.7962 167.498 38.3985 166.594 39.0008C165.691 39.302 164.636 39.6032 163.432 39.9043C159.517 41.4102 155.752 43.0666 152.138 44.8735C148.825 46.3794 145.362 48.0358 141.748 49.8428C138.435 51.3486 135.273 53.005 132.261 54.812C129.25 56.619 126.087 58.4259 122.775 60.2329C122.172 60.5341 121.419 60.9858 120.516 61.5882C119.914 61.8893 119.311 62.3411 118.709 62.9434L105.608 72.4301C101.091 76.0441 96.5733 79.658 92.0559 83.272C87.5384 86.5848 83.3221 90.3494 79.407 94.5657L71.2756 101.794C69.4686 103.299 67.6616 104.956 65.8546 106.763C64.3488 108.269 62.8429 109.925 61.3371 111.732C58.9278 114.442 56.5185 117.304 54.1092 120.315C51.6999 123.327 49.14 126.188 46.4295 128.898C45.8272 129.501 45.2248 130.254 44.6225 131.157C44.3213 131.759 43.8696 132.512 43.2673 133.416C40.858 138.234 38.1475 142.601 35.1358 146.516C34.2323 148.022 33.3288 149.679 32.4254 151.486C31.5219 153.293 30.769 155.1 30.1666 156.907L27.9079 161.424C27.3056 162.629 26.7032 163.833 26.1009 165.038C25.7997 166.243 25.348 167.598 24.7457 169.104C22.9387 173.32 21.734 177.536 21.1317 181.753C20.5294 185.668 19.4753 189.734 17.9695 193.95C17.066 196.962 16.7648 199.823 17.066 202.533C17.6683 205.244 18.4212 207.954 19.3247 210.665C19.6259 211.869 20.5294 212.773 22.0352 213.375C24.4445 214.58 26.7032 215.483 28.8114 216.085C31.2207 216.688 33.7806 216.688 36.4911 216.085C37.0934 215.784 37.9969 215.634 39.2016 215.634L40.5568 216.989V217.441C40.5568 217.742 40.4062 218.043 40.105 218.344L38.2981 219.699C34.6841 221.205 31.6724 223.163 29.2631 225.572C27.7573 227.68 25.9503 228.132 23.8422 226.927C21.4329 226.626 19.0235 225.422 16.6142 223.313C15.4096 222.109 14.5061 221.356 13.9038 221.055C9.98862 218.645 7.27814 214.881 5.77232 209.761C5.16999 208.255 4.56766 206.599 3.96533 204.792C3.363 202.985 2.91125 201.178 2.61009 199.371C2.61009 197.865 2.45951 196.359 2.15834 194.853C1.85718 193.348 1.40543 191.842 0.803105 190.336C-0.401552 186.421 -0.25097 181.753 1.25485 176.332C2.76067 170.911 4.56766 165.791 6.67581 160.972C9.08512 155.853 12.0968 151.034 15.7107 146.516C16.3131 142.601 17.8189 140.041 20.2282 138.837C19.6259 142.15 18.1201 144.71 15.7107 146.516C15.7107 148.926 14.9578 151.335 13.452 153.744C12.8497 154.949 12.8497 156.003 13.452 156.907C14.0543 156.606 14.6567 155.853 15.259 154.648C16.7648 151.335 18.4212 148.173 20.2282 145.161C22.3364 141.848 24.5951 138.536 27.0044 135.223C29.1125 132.512 31.0701 129.802 32.8771 127.091C34.6841 124.08 36.7922 121.068 39.2016 118.056C41.0085 115.647 42.8155 113.238 44.6225 110.829C46.4295 108.419 48.5376 106.16 50.947 104.052L54.5609 99.9866L57.2714 96.3726C59.3796 94.5657 61.3371 92.6081 63.1441 90.4999C64.9511 88.3918 66.7581 86.4342 68.5651 84.6272C70.9744 82.2179 73.3837 80.1098 75.793 78.3028C78.2023 76.4958 80.6116 74.6888 83.021 72.8818C84.2256 71.9783 85.2797 71.0748 86.1832 70.1713C87.3878 69.2679 88.4419 68.0632 89.3454 66.5574C89.3454 65.955 89.1948 65.5033 88.8937 65.2021C88.8937 64.901 89.3454 64.2987 90.2489 63.3952L104.253 53.4567C103.952 53.4567 104.253 53.005 105.157 52.1015H105.608C107.716 50.5957 110.427 48.7887 113.74 46.6805C117.354 44.2712 119.462 42.916 120.064 42.6148C125.485 40.5067 130.906 37.495 136.327 33.5799C136.929 32.9776 137.381 32.6764 137.682 32.6764C140.092 31.4717 142.953 29.9659 146.265 28.1589C149.578 26.3519 152.891 25.1473 156.204 24.545C157.409 24.2438 158.463 23.792 159.366 23.1897C160.27 22.5874 161.324 21.9851 162.528 21.3827C165.841 19.2746 169.154 17.6182 172.467 16.4135C176.081 14.9077 179.845 13.8536 183.76 13.2513C186.17 12.649 188.428 12.1972 190.537 11.896C192.645 11.5949 194.753 10.842 196.861 9.63732C197.463 9.035 198.066 8.73383 198.668 8.73383C199.27 8.73383 199.873 8.58325 200.475 8.28207C203.788 7.67975 206.799 7.07743 209.51 6.47511C212.22 5.57161 215.232 4.8187 218.545 4.21638C219.448 3.9152 220.653 3.7646 222.159 3.7646C223.062 3.7646 223.815 3.9152 224.418 4.21638C225.321 4.21638 226.225 4.06578 227.128 3.7646L244.294 0.602393C244.596 0.602393 246.101 0.451814 248.812 0.150653C251.824 -0.150525 254.233 5.42363e-05 256.04 0.602393C257.244 0.903553 259.353 1.05414 262.364 1.05414C263.87 1.05414 265.376 1.20472 266.882 1.50588C268.388 1.50588 269.893 1.65646 271.399 1.95762C275.616 2.55996 279.38 3.61404 282.693 5.11986C286.307 6.62568 289.77 8.28208 293.083 10.0891C294.589 10.6914 295.492 11.2937 295.794 11.896C300.01 15.8112 303.624 20.0275 306.635 24.545C309.948 28.7613 312.056 33.8811 312.96 39.9043C312.96 40.2055 312.96 40.5067 312.96 40.8078C313.261 41.109 313.412 41.5607 313.412 42.1631C313.111 44.5724 313.111 46.3794 313.412 47.584C313.713 48.4875 313.562 49.6922 312.96 51.198C311.755 54.2096 311.153 56.4684 311.153 57.9742C311.153 61.8893 310.249 65.3527 308.442 68.3644C307.84 69.8702 307.238 71.376 306.635 72.8818C306.033 74.0865 305.431 75.4417 304.828 76.9475C304.226 78.4534 303.473 79.658 302.57 80.5615C300.462 82.9708 298.504 85.5307 296.697 88.2412C294.89 90.6505 293.083 93.0598 291.276 95.4691L287.662 99.5349C285.253 101.643 282.843 103.751 280.434 105.859C278.326 107.967 276.067 110.226 273.658 112.636C266.731 119.863 259.051 126.188 250.619 131.609C247.908 133.115 245.349 134.319 242.939 135.223C241.433 135.825 240.229 136.729 239.325 137.933C238.121 139.439 236.765 140.794 235.259 141.999C233.754 142.903 232.248 143.655 230.742 144.258C229.839 144.86 228.784 145.312 227.58 145.613C226.676 145.914 225.923 146.517 225.321 147.42C221.406 151.034 217.34 152.992 213.124 153.293C211.317 153.895 210.112 154.497 209.51 155.1C208.004 156.907 205.595 158.413 202.282 159.617C201.379 159.918 200.475 160.37 199.572 160.972C198.969 161.274 198.367 161.725 197.765 162.328L188.278 168.2C186.471 169.405 184.513 170.61 182.405 171.814C180.598 172.718 178.641 173.471 176.532 174.073C171.413 176.482 166.293 178.892 161.173 181.301C156.053 183.71 151.084 186.421 146.265 189.432C145.061 190.637 144.157 191.239 143.555 191.239C139.941 191.842 136.628 193.197 133.617 195.305C130.605 197.112 127.292 198.317 123.678 198.919C123.076 198.919 122.172 199.22 120.968 199.823C119.161 201.027 118.709 202.684 119.612 204.792C120.215 205.996 120.817 206.9 121.419 207.502L130.454 219.248C131.96 221.356 133.617 223.464 135.424 225.572C137.231 227.379 139.339 229.186 141.748 230.993L158.011 245.449L164.787 251.773C170.81 256.291 176.984 260.507 183.309 264.422C189.934 268.639 196.259 272.855 202.282 277.071C206.197 278.878 209.811 280.986 213.124 283.396C216.437 285.805 220.051 287.913 223.966 289.72C228.784 292.129 233.452 294.539 237.97 296.948C242.487 299.659 247.306 302.068 252.426 304.176L256.943 306.887C259.353 308.091 261.16 308.693 262.364 308.693C263.87 308.995 265.376 309.446 266.882 310.049C268.689 310.651 270.345 311.253 271.851 311.856C275.164 313.362 278.326 314.566 281.338 315.47C284.65 316.674 287.963 317.126 291.276 316.825C291.878 316.825 292.33 316.825 292.631 316.825C293.234 317.126 293.836 317.277 294.438 317.277C297.751 318.18 301.064 318.481 304.377 318.18C307.991 318.18 311.454 318.18 314.767 318.18H316.122C320.338 317.277 324.254 315.921 327.868 314.114C331.783 312.609 335.397 310.35 338.709 307.338C341.119 305.23 343.227 302.971 345.034 300.562C346.841 298.153 348.347 295.292 349.551 291.979C350.154 290.473 350.756 289.118 351.358 287.913C352.262 286.708 353.015 285.504 353.617 284.299C353.918 283.998 354.37 283.847 354.972 283.847ZM277.724 89.5964C275.917 89.8976 274.863 90.9517 274.561 92.7587L275.013 93.2104C276.519 93.2104 277.573 92.3069 278.175 90.4999V89.5964H277.724ZM266.882 102.245L267.333 102.697C268.839 102.396 269.893 101.342 270.496 99.5349C270.496 99.5349 270.345 99.3843 270.044 99.0831C270.044 98.782 269.893 98.6314 269.592 98.6314C269.592 98.6314 269.592 98.782 269.592 99.0831C268.99 99.3843 268.086 100.137 266.882 101.342V102.245ZM229.839 132.061C229.839 132.362 229.839 132.512 229.839 132.512C230.14 132.512 230.29 132.663 230.29 132.964H231.194L240.68 125.736C241.283 125.134 241.885 124.23 242.487 123.026L237.518 125.284C236.615 125.887 235.711 126.037 234.808 125.736C233.904 125.435 233.001 125.887 232.097 127.091L229.839 132.061ZM218.545 138.837C218.545 139.439 218.695 139.891 218.997 140.192H219.448C221.557 139.59 223.062 138.837 223.966 137.933C224.869 136.729 224.568 135.373 223.062 133.868L218.545 138.837ZM201.83 147.872C200.927 148.474 200.023 149.227 199.12 150.13C198.216 150.733 197.463 151.636 196.861 152.841C197.765 152.54 198.517 152.389 199.12 152.389C200.023 152.389 200.776 152.088 201.379 151.486C203.186 150.883 204.842 150.13 206.348 149.227C208.155 148.022 209.811 146.968 211.317 146.065C211.919 145.462 212.371 145.161 212.672 145.161C213.576 144.258 213.576 143.505 212.672 142.903H211.317L201.83 147.872ZM196.861 152.841C192.946 153.744 189.934 155.853 187.826 159.165C192.344 158.262 195.355 156.154 196.861 152.841ZM170.66 168.652L171.111 169.104C176.834 166.996 182.255 163.833 187.374 159.617C187.374 159.617 187.525 159.467 187.826 159.165C186.019 159.165 184.664 159.316 183.76 159.617L170.66 167.749V168.652ZM144.458 182.204C144.157 182.204 144.007 182.355 144.007 182.656C144.007 182.957 144.007 183.108 144.007 183.108C144.308 183.108 144.458 183.259 144.458 183.56C146.567 183.56 148.374 182.807 149.879 181.301V180.397C149.578 180.397 149.428 180.397 149.428 180.397C149.428 180.096 149.277 179.946 148.976 179.946L144.458 182.204ZM132.261 188.529C131.96 188.529 131.81 188.83 131.81 189.432C132.111 189.432 132.261 189.583 132.261 189.884C132.562 189.884 132.864 189.884 133.165 189.884L137.231 187.625C137.231 187.625 137.381 187.475 137.682 187.174C137.381 186.873 137.231 186.571 137.231 186.27C136.327 186.873 135.424 187.324 134.52 187.625C133.617 187.625 132.864 187.927 132.261 188.529ZM126.389 190.336C124.582 190.938 123.377 191.39 122.775 191.691C122.172 191.691 121.118 192.444 119.612 193.95C122.022 193.649 123.528 193.498 124.13 193.498C124.732 193.197 125.636 192.595 126.84 191.691C126.84 191.691 126.991 191.39 127.292 190.788C126.69 190.788 126.389 190.637 126.389 190.336ZM212.22 287.01V286.558L200.475 278.878L194.151 274.812C193.247 274.21 192.344 273.758 191.44 273.457C190.838 273.156 190.085 272.855 189.181 272.554C188.579 272.554 188.127 272.704 187.826 273.006C187.826 273.608 187.977 274.06 188.278 274.361L204.089 285.203C205.294 285.805 206.498 286.257 207.703 286.558C208.908 286.859 210.112 287.311 211.317 287.913H212.22V287.01ZM317.929 326.312C318.23 326.312 318.381 326.161 318.381 325.86C318.381 325.559 318.23 325.408 317.929 325.408C317.327 325.107 316.574 324.956 315.67 324.956C311.454 325.559 307.388 325.559 303.473 324.956C302.871 324.655 302.118 324.505 301.214 324.505C300.612 324.806 300.01 324.806 299.408 324.505C297.299 324.505 295.794 324.354 294.89 324.053C291.276 322.547 287.662 321.342 284.048 320.439C280.434 319.837 276.82 318.933 273.206 317.728C268.086 316.223 262.967 314.416 257.847 312.307C252.727 310.5 247.758 308.242 242.939 305.531L230.29 297.852C226.977 295.442 223.062 293.184 218.545 291.075L217.641 291.979C217.34 291.979 217.34 292.129 217.641 292.431C219.147 294.238 220.653 295.593 222.159 296.496L237.066 305.531C241.283 307.941 245.198 310.049 248.812 311.856L264.171 318.632C267.785 320.439 271.399 321.794 275.013 322.698C278.928 323.902 282.843 324.956 286.759 325.86C289.77 326.462 292.782 326.914 295.794 327.215C298.805 327.516 301.666 327.968 304.377 328.57L316.574 327.215C316.875 327.215 317.327 326.914 317.929 326.312ZM26.1009 131.157C25.1974 134.47 23.2398 137.03 20.2282 138.837L21.1317 135.675L25.1974 129.35C25.7997 130.555 26.1009 131.157 26.1009 131.157Z" fill="#F4F4F4"/>
</svg>
