<svg width="402" height="245" viewBox="0 0 402 245" fill="none" xmlns="http://www.w3.org/2000/svg">
<path d="M367.962 109.871C368.395 110.304 369.369 110.845 370.884 111.495C372.616 112.144 373.699 112.686 374.132 113.119C375.214 113.985 375.214 114.959 374.132 116.041C373.266 116.907 372.616 117.881 372.183 118.964C371.967 119.613 371.425 120.804 370.559 122.536C369.693 124.051 368.719 125.783 367.637 127.732C366.771 129.464 365.905 131.196 365.039 132.928C364.173 134.443 363.632 135.634 363.415 136.5C362.982 137.582 362.441 138.665 361.791 139.747C361.358 140.83 360.709 141.912 359.843 142.995C358.761 144.51 357.895 146.026 357.245 147.541C356.596 149.057 355.73 150.572 354.647 152.087C354.214 152.52 353.998 153.062 353.998 153.711C353.565 154.794 353.023 155.876 352.374 156.959C351.941 158.041 351.4 159.124 350.75 160.206L350.101 161.18C349.884 162.912 349.235 164.536 348.152 166.051C347.286 167.35 346.529 168.866 345.879 170.598C343.714 176.01 342.632 181.098 342.632 185.861C342.632 188.459 343.281 190.407 344.58 191.706L345.23 193.005C345.23 193.221 345.121 193.546 344.905 193.979C344.688 194.412 344.364 194.629 343.931 194.629C343.281 194.629 342.74 194.412 342.307 193.979C338.843 192.68 336.678 190.407 335.812 187.16C334.73 184.562 334.188 182.18 334.188 180.015V175.144V169.624L335.163 167.35C335.596 167.134 335.812 166.484 335.812 165.402C335.596 164.752 335.704 164.211 336.137 163.778C336.57 163.345 336.786 163.02 336.786 162.804C336.57 161.289 336.786 159.99 337.436 158.907C337.869 158.258 338.085 157.716 338.085 157.283C338.085 156.634 338.302 155.984 338.735 155.335C339.168 153.603 339.709 152.412 340.359 151.763C340.791 151.113 340.9 150.572 340.683 150.139C340.683 149.49 340.9 148.84 341.333 148.191C341.766 147.758 342.09 147.216 342.307 146.567C342.74 145.917 343.173 145.376 343.606 144.943C344.039 144.51 344.255 143.969 344.255 143.319C344.039 142.454 344.364 141.155 345.23 139.423C346.096 137.907 346.745 136.392 347.178 134.876C347.828 133.361 348.585 131.845 349.451 130.33L353.673 120.912L358.219 111.495C358.869 110.412 359.951 109.655 361.467 109.222C363.415 108.789 364.931 108.68 366.013 108.897L367.962 109.871ZM359.193 123.835C359.41 123.186 359.41 122.969 359.193 123.186C358.977 123.402 358.652 123.727 358.219 124.16C357.786 124.593 357.462 124.917 357.245 125.134C357.029 125.35 357.137 125.134 357.57 124.484C358.003 123.402 358.652 122.428 359.518 121.562C360.601 120.479 361.358 119.289 361.791 117.99L359.843 118.964C359.626 119.18 358.544 121.129 356.596 124.809C354.647 128.273 352.482 132.278 350.101 136.825C347.936 141.371 345.879 146.026 343.931 150.789C342.199 155.335 341.333 158.799 341.333 161.18C341.766 161.613 342.09 161.721 342.307 161.505C342.523 161.289 342.632 161.072 342.632 160.856C343.931 155.443 346.204 149.49 349.451 142.995C352.699 136.283 355.946 129.897 359.193 123.835ZM373.807 88.4382C373.374 88.2217 373.482 87.1392 374.132 85.1908C374.781 83.0258 375.539 81.4021 376.405 80.3196L377.054 79.0207C377.271 78.8042 377.487 78.2629 377.704 77.397C377.92 76.531 378.245 75.8815 378.678 75.4485C379.76 73.5001 380.735 71.5516 381.601 69.6032C382.683 67.6547 383.766 65.7063 384.848 63.7578C385.931 61.8094 386.797 59.9692 387.446 58.2372C387.663 57.5877 388.42 57.263 389.719 57.263H392.317C392.534 57.263 392.75 57.3713 392.967 57.5877C393.183 57.5877 393.508 57.5877 393.941 57.5877C394.807 58.2372 395.673 58.8867 396.539 59.5362C397.405 59.9692 398.162 60.6187 398.812 61.4846L400.436 63.7578C401.302 65.0568 401.41 66.3558 400.76 67.6547C399.894 69.3867 398.92 70.6856 397.838 71.5516C397.188 72.2011 396.864 72.6341 396.864 72.8506C396.214 74.1496 395.348 75.3403 394.266 76.4227C393.4 77.2887 392.534 78.2629 391.668 79.3454C391.018 80.4279 390.477 81.0774 390.044 81.2939C389.827 81.2939 389.286 81.7269 388.42 82.5928C387.987 83.0258 387.446 83.3506 386.797 83.5671C386.364 83.7836 385.931 84.1083 385.498 84.5413C384.632 85.6238 383.766 86.4897 382.9 87.1392C382.034 87.7887 380.735 88.4382 379.003 89.0877C380.302 87.3557 380.735 86.3815 380.302 86.165C380.085 85.732 379.436 85.732 378.353 86.165C377.487 86.3815 376.513 86.8145 375.431 87.464C374.565 88.1134 374.023 88.4382 373.807 88.4382ZM388.095 68.3042C388.745 67.2217 389.286 66.1393 389.719 65.0568C390.369 63.7578 390.91 62.5671 391.343 61.4846H390.369C389.719 62.1341 388.961 63.3248 388.095 65.0568C387.662 66.1393 387.121 67.2217 386.472 68.3042C386.039 69.1702 385.498 70.1444 384.848 71.2269C384.415 71.6599 384.415 72.0929 384.848 72.5258C384.848 72.5258 384.74 72.6341 384.523 72.8506H384.848V72.5258C385.281 71.8764 385.822 71.2269 386.472 70.5774C387.121 69.9279 387.662 69.1702 388.095 68.3042Z" fill="#2C2C2C"/>
<path d="M324.73 117.665C325.813 118.314 326.787 118.964 327.653 119.613C328.735 120.263 329.818 121.021 330.9 121.887C332.849 123.186 333.823 125.026 333.823 127.407V129.356C332.74 131.088 331.874 132.82 331.225 134.551C330.575 136.067 329.385 137.474 327.653 138.773C327.003 139.423 326.57 140.18 326.354 141.046C326.354 142.562 325.704 144.077 324.405 145.593C323.972 146.459 323.648 147.433 323.431 148.515C323.215 149.381 322.89 150.356 322.457 151.438C322.457 152.737 322.24 154.036 321.807 155.335C321.591 156.417 321.374 157.608 321.158 158.907C321.158 160.423 321.05 161.938 320.833 163.453C320.617 164.969 320.725 166.484 321.158 168C321.158 169.732 321.05 170.923 320.833 171.572L321.483 176.768C321.699 177.85 322.673 178.608 324.405 179.041H327.003L329.926 178.067C331.008 178.067 331.874 178.175 332.524 178.392C332.524 179.258 332.416 179.907 332.199 180.34C331.333 182.072 330.467 183.154 329.601 183.587C327.869 185.103 325.596 185.211 322.782 183.912C321.916 183.479 320.941 183.046 319.859 182.613C318.777 182.397 318.019 181.855 317.586 180.989C316.72 179.907 315.962 178.933 315.313 178.067C314.663 177.201 314.014 176.118 313.364 174.819C312.715 173.953 312.065 172.763 311.416 171.247C310.983 169.732 310.658 168.433 310.442 167.35C309.792 164.536 309.359 161.721 309.143 158.907C308.926 156.093 308.71 153.278 308.493 150.464C308.926 149.165 309.143 148.191 309.143 147.541C308.926 147.108 308.06 147.974 306.545 150.139C305.029 152.304 303.514 154.361 301.998 156.309L299.725 158.907C296.911 161.938 293.771 165.294 290.308 168.974C286.844 172.654 283.596 175.469 280.565 177.417C280.349 177.634 279.591 178.067 278.292 178.716C276.993 179.366 276.235 179.582 276.019 179.366C275.586 179.366 274.72 178.933 273.421 178.067L271.473 176.768V176.443C268.442 172.979 267.251 168.866 267.9 164.103C268.333 162.371 268.658 160.747 268.875 159.232C269.091 157.5 269.632 155.768 270.498 154.036C272.23 150.139 274.287 146.35 276.668 142.67C279.05 138.99 281.648 135.417 284.462 131.954C285.761 130.871 286.627 129.68 287.06 128.381C288.359 126.866 289.55 125.459 290.632 124.16C291.931 122.644 293.447 121.237 295.179 119.938C296.261 119.072 297.019 118.206 297.452 117.34C298.101 116.474 298.967 115.608 300.05 114.742L302.323 112.794C302.756 112.361 303.189 112.036 303.622 111.82C304.055 111.603 304.596 111.387 305.246 111.17L310.117 110.196C310.983 109.763 311.849 109.546 312.715 109.546C313.581 109.546 314.555 109.546 315.637 109.546C316.72 109.763 317.802 110.088 318.885 110.521C320.184 110.737 321.374 111.278 322.457 112.144C323.972 113.66 324.622 115.283 324.405 117.015C324.405 117.015 324.514 117.232 324.73 117.665ZM313.364 130.005C313.364 129.139 313.472 128.381 313.689 127.732C314.122 127.082 314.555 126.325 314.988 125.459C314.988 125.026 314.88 124.701 314.663 124.484H314.338H314.014C312.931 124.917 312.065 125.35 311.416 125.783C310.766 126.216 310.009 126.758 309.143 127.407C307.411 129.139 305.57 130.979 303.622 132.928C301.89 134.66 300.158 136.5 298.426 138.448C297.344 140.18 296.045 141.804 294.529 143.319C293.23 144.618 292.039 146.134 290.957 147.866C290.091 148.732 289.333 149.598 288.684 150.464C288.034 151.33 287.385 152.304 286.735 153.386C286.086 154.685 285.328 155.984 284.462 157.283C283.596 158.582 282.838 159.99 282.189 161.505L279.916 165.077C279.916 165.727 279.808 166.376 279.591 167.026C279.591 167.459 279.808 168 280.241 168.649C280.674 168.649 280.998 168.541 281.215 168.325C282.297 167.459 283.271 166.593 284.137 165.727C285.22 164.861 286.411 163.995 287.71 163.129L291.282 160.206C293.663 157.608 295.395 155.66 296.478 154.361C297.56 152.845 298.21 151.979 298.426 151.763C299.076 150.897 299.617 150.139 300.05 149.49C300.699 148.84 301.241 148.082 301.673 147.216C303.405 145.484 304.813 143.752 305.895 142.021C307.194 140.289 308.601 138.557 310.117 136.825C310.766 135.959 311.199 135.093 311.416 134.227C311.632 133.361 311.957 132.387 312.39 131.304L313.364 130.005ZM273.096 164.428C273.529 163.562 273.962 162.804 274.395 162.154C274.828 161.289 275.153 160.423 275.369 159.557C279.483 151.113 284.787 143.211 291.282 135.85C291.715 135.417 291.823 134.984 291.606 134.551C291.606 134.118 291.823 133.685 292.256 133.253C291.823 133.253 291.174 133.469 290.308 133.902C289.009 136.067 286.844 138.448 283.813 141.046C284.029 141.479 283.921 141.912 283.488 142.345L280.89 145.593L276.019 153.062L272.771 160.206C271.473 162.587 270.823 165.077 270.823 167.675C270.607 167.675 270.498 168 270.498 168.649C270.498 168.649 270.607 168.758 270.823 168.974V169.299C271.473 169.299 271.797 169.191 271.797 168.974C272.23 168.325 272.447 167.567 272.447 166.701C272.447 165.835 272.663 165.077 273.096 164.428ZM304.271 149.814C304.704 149.381 304.704 149.165 304.271 149.165C304.704 148.299 304.813 147.649 304.596 147.216C304.596 147.649 304.38 148.082 303.947 148.515C303.73 148.948 303.405 149.381 302.972 149.814C303.189 149.598 303.514 149.49 303.947 149.49C303.73 149.923 303.189 150.572 302.323 151.438C302.323 151.005 302.323 150.68 302.323 150.464C302.539 150.247 302.648 150.031 302.648 149.814C302.431 150.247 301.89 150.897 301.024 151.763C301.24 151.763 301.349 151.763 301.349 151.763C301.565 151.546 301.782 151.438 301.998 151.438L301.349 152.412H300.699V152.088C298.318 154.902 295.936 157.608 293.555 160.206C291.39 162.804 290.308 163.995 290.308 163.778V164.428C290.091 164.428 290.091 164.536 290.308 164.752C291.607 164.103 292.797 163.237 293.88 162.154C295.179 160.856 295.936 160.098 296.153 159.881C296.586 159.665 297.344 158.691 298.426 156.959L304.271 149.814ZM321.807 140.397C319.643 146.675 318.344 152.088 317.911 156.634C317.478 161.18 317.369 164.969 317.586 168L317.911 167.675C318.127 167.459 318.235 167.134 318.235 166.701C318.235 162.587 318.452 158.907 318.885 155.66C319.534 152.196 320.292 148.624 321.158 144.943C321.591 144.077 321.916 143.428 322.132 142.995C322.565 142.345 322.565 141.479 322.132 140.397H321.807ZM275.045 149.165C274.612 149.598 274.72 149.814 275.369 149.814C275.802 150.247 276.019 150.139 276.019 149.49C276.452 149.057 276.885 148.407 277.318 147.541C276.885 147.108 276.668 146.675 276.668 146.242L275.694 146.892C275.911 147.325 275.911 147.758 275.694 148.191C275.478 148.407 275.261 148.732 275.045 149.165ZM322.132 140.397C322.782 139.747 323.215 139.098 323.431 138.448C323.864 137.582 324.297 136.716 324.73 135.85V135.526C324.73 135.526 324.622 135.526 324.405 135.526L322.132 140.072V140.397ZM292.581 131.954C292.581 132.387 292.472 132.82 292.256 133.253L293.23 132.278C294.096 131.845 294.096 131.629 293.23 131.629C293.014 131.629 292.905 131.737 292.905 131.954C292.905 131.954 292.797 131.954 292.581 131.954Z" fill="#2C2C2C"/>
<path d="M277.775 114.742C277.342 115.825 277.017 117.015 276.8 118.314C276.584 119.613 276.259 120.804 275.826 121.886C275.393 122.536 275.393 123.185 275.826 123.835C276.259 124.917 276.476 125.892 276.476 126.758C276.476 127.624 276.367 128.598 276.151 129.68C276.151 131.196 275.501 132.386 274.203 133.252C273.12 133.902 272.038 134.768 270.955 135.85C269.873 136.716 268.682 137.474 267.383 138.124C263.703 140.721 260.455 142.886 257.641 144.618C255.043 146.134 251.904 147.866 248.223 149.814C247.141 150.464 246.491 150.897 246.275 151.113C244.976 152.196 243.569 153.278 242.053 154.361C240.538 155.227 239.022 156.201 237.507 157.283L235.883 158.257C234.584 158.69 233.393 159.34 232.311 160.206C231.228 160.855 230.146 161.613 229.063 162.479L222.244 168.324C221.594 168.974 221.27 169.515 221.27 169.948C224.301 169.515 227.223 169.19 230.038 168.974C232.852 168.757 235.775 168.757 238.806 168.974C239.888 169.19 240.862 169.299 241.728 169.299C242.811 169.299 243.893 169.515 244.976 169.948C245.409 169.948 245.734 170.056 245.95 170.273C246.383 170.273 246.816 170.273 247.249 170.273C248.331 170.273 249.414 170.381 250.496 170.598C251.795 170.814 252.986 171.139 254.069 171.572C256.666 172.221 259.481 173.629 262.512 175.794C264.244 177.309 265.434 179.041 266.084 180.989C266.084 181.206 265.976 181.314 265.759 181.314C265.759 181.531 265.759 181.747 265.759 181.964C265.759 182.613 265.435 182.938 264.785 182.938C264.569 182.721 264.244 182.613 263.811 182.613C262.079 181.531 260.347 180.881 258.615 180.665C256.883 180.448 255.043 180.232 253.094 180.015C250.929 179.582 248.764 179.366 246.599 179.366C244.651 179.366 242.594 179.366 240.429 179.366C239.13 179.366 237.831 179.366 236.533 179.366C235.45 179.366 234.368 179.474 233.285 179.69C231.77 179.907 230.254 180.015 228.739 180.015C227.44 180.232 225.924 180.34 224.192 180.34C222.027 180.34 220.404 180.556 219.321 180.989C218.022 181.422 216.723 181.747 215.424 181.964C214.125 182.397 212.935 182.938 211.852 183.587C211.203 184.02 210.12 184.237 208.605 184.237C206.873 184.237 205.682 183.587 205.033 182.288C204.383 181.639 203.625 180.448 202.759 178.716C202.326 177.634 202.218 176.876 202.435 176.443C202.435 176.01 202.976 175.577 204.058 175.144L206.007 174.17C206.44 173.737 206.44 173.412 206.007 173.196C205.357 172.763 205.141 172.33 205.357 171.897C205.357 171.247 205.574 170.706 206.007 170.273C206.44 169.19 206.981 168.216 207.631 167.35C208.28 166.484 208.93 165.618 209.579 164.752C210.661 163.453 212.069 162.046 213.801 160.531C215.533 159.015 217.156 157.825 218.672 156.959H218.996H219.321C219.321 158.474 219.538 159.015 219.971 158.582C221.053 157.5 222.244 156.526 223.543 155.66C224.842 154.794 226.033 153.928 227.115 153.062C229.28 151.763 231.228 150.355 232.96 148.84C234.909 147.325 236.857 145.809 238.806 144.294H239.13C238.914 144.294 238.806 144.185 238.806 143.969C238.806 143.969 238.697 143.861 238.481 143.644C237.615 143.644 237.182 143.536 237.182 143.319C237.182 142.886 237.398 142.453 237.831 142.02C238.264 141.587 239.239 141.046 240.754 140.397C242.27 139.747 243.244 139.206 243.677 138.773C244.11 138.557 244.976 138.124 246.275 137.474C247.79 136.608 249.306 135.85 250.821 135.201C252.337 134.335 253.744 133.577 255.043 132.928C256.342 132.278 257.208 131.737 257.641 131.304V130.979C257.641 130.979 256.775 131.087 255.043 131.304C253.527 131.52 251.795 131.845 249.847 132.278C247.898 132.495 246.058 132.711 244.326 132.928C242.594 133.144 241.62 133.252 241.404 133.252H238.806C235.342 133.252 232.203 132.495 229.388 130.979C228.522 130.546 227.873 130.33 227.44 130.33C225.924 127.732 224.842 124.701 224.192 121.237C223.759 118.423 225.058 116.799 228.089 116.366C229.172 116.366 229.821 116.907 230.038 117.99L230.687 119.289C230.687 119.938 231.012 120.263 231.661 120.263C232.311 120.912 233.177 121.237 234.259 121.237C237.29 121.67 240.105 121.67 242.703 121.237C246.383 120.804 250.496 120.371 255.043 119.938C259.589 119.505 263.486 118.747 266.733 117.665C267.599 117.448 268.357 117.232 269.007 117.015C269.656 116.582 270.197 116.149 270.63 115.716C272.579 114.417 274.527 113.443 276.476 112.794C277.342 112.794 277.775 113.118 277.775 113.768V114.742ZM221.919 154.361C221.703 154.361 221.594 154.252 221.594 154.036C221.594 153.819 221.703 153.711 221.919 153.711C222.136 153.495 222.352 153.386 222.569 153.386C223.002 152.737 223.543 152.087 224.192 151.438C225.058 150.788 225.6 150.355 225.816 150.139C226.249 149.922 227.44 149.165 229.388 147.866C231.553 146.35 232.852 145.701 233.285 145.917C233.935 145.917 234.259 145.917 234.259 145.917C234.259 145.917 233.935 146.134 233.285 146.567C232.852 147 232.203 147.433 231.337 147.866C230.687 148.299 230.038 148.84 229.388 149.489C228.739 149.922 228.414 150.139 228.414 150.139C227.981 150.572 227.115 151.221 225.816 152.087C224.734 152.953 223.759 153.495 222.893 153.711C222.893 153.928 222.785 154.036 222.569 154.036C222.569 154.252 222.352 154.361 221.919 154.361ZM216.723 161.18C217.589 160.964 218.239 160.314 218.672 159.232C217.373 159.232 216.723 159.881 216.723 161.18ZM216.723 161.18C216.29 161.18 215.966 161.288 215.749 161.505C215.749 161.505 215.641 161.505 215.424 161.505C215.208 161.505 215.1 161.613 215.1 161.83V162.154C215.316 162.371 215.533 162.371 215.749 162.154L216.723 161.18Z" fill="#2C2C2C"/>
<path d="M199.147 117.665C200.229 118.314 201.203 118.964 202.069 119.613C203.152 120.263 204.234 121.021 205.317 121.887C207.265 123.186 208.239 125.026 208.239 127.407V129.356C207.157 131.088 206.291 132.82 205.641 134.551C204.992 136.067 203.801 137.474 202.069 138.773C201.42 139.423 200.987 140.18 200.77 141.046C200.77 142.562 200.121 144.077 198.822 145.593C198.389 146.459 198.064 147.433 197.848 148.515C197.631 149.381 197.306 150.356 196.873 151.438C196.873 152.737 196.657 154.036 196.224 155.335C196.007 156.417 195.791 157.608 195.574 158.907C195.574 160.423 195.466 161.938 195.25 163.453C195.033 164.969 195.141 166.484 195.574 168C195.574 169.732 195.466 170.923 195.25 171.572L195.899 176.768C196.116 177.85 197.09 178.608 198.822 179.041H201.42L204.342 178.067C205.425 178.067 206.291 178.175 206.94 178.392C206.94 179.258 206.832 179.907 206.616 180.34C205.75 182.072 204.884 183.154 204.018 183.587C202.286 185.103 200.013 185.211 197.198 183.912C196.332 183.479 195.358 183.046 194.276 182.613C193.193 182.397 192.435 181.855 192.002 180.989C191.136 179.907 190.379 178.933 189.729 178.067C189.08 177.201 188.43 176.118 187.781 174.819C187.131 173.953 186.482 172.763 185.832 171.247C185.399 169.732 185.074 168.433 184.858 167.35C184.209 164.536 183.776 161.721 183.559 158.907C183.343 156.093 183.126 153.278 182.91 150.464C183.343 149.165 183.559 148.191 183.559 147.541C183.343 147.108 182.477 147.974 180.961 150.139C179.446 152.304 177.93 154.361 176.415 156.309L174.142 158.907C171.327 161.938 168.188 165.294 164.724 168.974C161.26 172.654 158.013 175.469 154.982 177.417C154.765 177.634 154.008 178.067 152.709 178.716C151.41 179.366 150.652 179.582 150.435 179.366C150.002 179.366 149.136 178.933 147.837 178.067L145.889 176.768V176.443C142.858 172.979 141.667 168.866 142.317 164.103C142.75 162.371 143.075 160.747 143.291 159.232C143.508 157.5 144.049 155.768 144.915 154.036C146.647 150.139 148.703 146.35 151.085 142.67C153.466 138.99 156.064 135.417 158.879 131.954C160.178 130.871 161.044 129.68 161.477 128.381C162.776 126.866 163.966 125.459 165.049 124.16C166.348 122.644 167.863 121.237 169.595 119.938C170.678 119.072 171.435 118.206 171.868 117.34C172.518 116.474 173.384 115.608 174.466 114.742L176.739 112.794C177.172 112.361 177.605 112.036 178.038 111.82C178.471 111.603 179.013 111.387 179.662 111.17L184.533 110.196C185.399 109.763 186.265 109.546 187.131 109.546C187.997 109.546 188.971 109.546 190.054 109.546C191.136 109.763 192.219 110.088 193.301 110.521C194.6 110.737 195.791 111.278 196.873 112.144C198.389 113.66 199.038 115.283 198.822 117.015C198.822 117.015 198.93 117.232 199.147 117.665ZM187.781 130.005C187.781 129.139 187.889 128.381 188.105 127.732C188.538 127.082 188.971 126.325 189.404 125.459C189.404 125.026 189.296 124.701 189.08 124.484H188.755H188.43C187.348 124.917 186.482 125.35 185.832 125.783C185.183 126.216 184.425 126.758 183.559 127.407C181.827 129.139 179.987 130.979 178.038 132.928C176.306 134.66 174.575 136.5 172.843 138.448C171.76 140.18 170.461 141.804 168.946 143.319C167.647 144.618 166.456 146.134 165.374 147.866C164.508 148.732 163.75 149.598 163.1 150.464C162.451 151.33 161.801 152.304 161.152 153.386C160.502 154.685 159.745 155.984 158.879 157.283C158.013 158.582 157.255 159.99 156.605 161.505L154.332 165.077C154.332 165.727 154.224 166.376 154.008 167.026C154.008 167.459 154.224 168 154.657 168.649C155.09 168.649 155.415 168.541 155.631 168.325C156.714 167.459 157.688 166.593 158.554 165.727C159.636 164.861 160.827 163.995 162.126 163.129L165.698 160.206C168.08 157.608 169.812 155.66 170.894 154.361C171.977 152.845 172.626 151.979 172.843 151.763C173.492 150.897 174.033 150.139 174.466 149.49C175.116 148.84 175.657 148.082 176.09 147.216C177.822 145.484 179.229 143.752 180.312 142.021C181.611 140.289 183.018 138.557 184.533 136.825C185.183 135.959 185.616 135.093 185.832 134.227C186.049 133.361 186.373 132.387 186.806 131.304L187.781 130.005ZM147.513 164.428C147.946 163.562 148.379 162.804 148.812 162.154C149.245 161.289 149.569 160.423 149.786 159.557C153.899 151.113 159.203 143.211 165.698 135.85C166.131 135.417 166.239 134.984 166.023 134.551C166.023 134.118 166.24 133.685 166.672 133.253C166.24 133.253 165.59 133.469 164.724 133.902C163.425 136.067 161.26 138.448 158.229 141.046C158.446 141.479 158.337 141.912 157.904 142.345L155.307 145.593L150.435 153.062L147.188 160.206C145.889 162.587 145.24 165.077 145.24 167.675C145.023 167.675 144.915 168 144.915 168.649C144.915 168.649 145.023 168.758 145.24 168.974V169.299C145.889 169.299 146.214 169.191 146.214 168.974C146.647 168.325 146.863 167.567 146.863 166.701C146.863 165.835 147.08 165.077 147.513 164.428ZM178.688 149.814C179.121 149.381 179.121 149.165 178.688 149.165C179.121 148.299 179.229 147.649 179.013 147.216C179.013 147.649 178.796 148.082 178.363 148.515C178.147 148.948 177.822 149.381 177.389 149.814C177.605 149.598 177.93 149.49 178.363 149.49C178.147 149.923 177.605 150.572 176.739 151.438C176.739 151.005 176.739 150.68 176.739 150.464C176.956 150.247 177.064 150.031 177.064 149.814C176.848 150.247 176.306 150.897 175.44 151.763C175.657 151.763 175.765 151.763 175.765 151.763C175.982 151.546 176.198 151.438 176.415 151.438L175.765 152.412H175.116V152.088C172.734 154.902 170.353 157.608 167.971 160.206C165.807 162.804 164.724 163.995 164.724 163.778V164.428C164.508 164.428 164.508 164.536 164.724 164.752C166.023 164.103 167.214 163.237 168.296 162.154C169.595 160.856 170.353 160.098 170.569 159.881C171.002 159.665 171.76 158.691 172.843 156.959L178.688 149.814ZM196.224 140.397C194.059 146.675 192.76 152.088 192.327 156.634C191.894 161.18 191.786 164.969 192.002 168L192.327 167.675C192.544 167.459 192.652 167.134 192.652 166.701C192.652 162.587 192.868 158.907 193.301 155.66C193.951 152.196 194.708 148.624 195.574 144.943C196.007 144.077 196.332 143.428 196.549 142.995C196.982 142.345 196.982 141.479 196.549 140.397H196.224ZM149.461 149.165C149.028 149.598 149.136 149.814 149.786 149.814C150.219 150.247 150.435 150.139 150.435 149.49C150.868 149.057 151.301 148.407 151.734 147.541C151.301 147.108 151.085 146.675 151.085 146.242L150.111 146.892C150.327 147.325 150.327 147.758 150.111 148.191C149.894 148.407 149.678 148.732 149.461 149.165ZM196.549 140.397C197.198 139.747 197.631 139.098 197.848 138.448C198.281 137.582 198.714 136.716 199.147 135.85V135.526C199.147 135.526 199.038 135.526 198.822 135.526L196.549 140.072V140.397ZM166.997 131.954C166.997 132.387 166.889 132.82 166.672 133.253L167.647 132.278C168.513 131.845 168.513 131.629 167.647 131.629C167.43 131.629 167.322 131.737 167.322 131.954C167.322 131.954 167.214 131.954 166.997 131.954Z" fill="#2C2C2C"/>
<path d="M255.175 204.046C256.041 204.046 256.149 204.371 255.499 205.02C255.066 207.835 254.417 210.649 253.551 213.463C252.685 216.278 251.386 218.876 249.654 221.257C248.571 222.34 248.03 223.639 248.03 225.154C248.03 226.237 247.706 227.103 247.056 227.752C245.974 229.267 244.999 230.675 244.133 231.974C243.267 233.273 242.077 234.463 240.561 235.546C238.613 237.278 236.556 238.685 234.391 239.767C232.226 240.85 229.953 241.932 227.572 243.015C226.922 243.448 226.164 243.556 225.298 243.34C224.649 243.34 223.891 243.448 223.025 243.664C220.427 244.314 218.046 244.422 215.881 243.989C215.231 243.773 214.474 243.664 213.608 243.664C212.958 243.881 212.309 243.989 211.659 243.989C210.577 243.989 208.953 243.664 206.788 243.015C204.623 242.582 203.108 242.365 202.242 242.365C201.159 242.365 200.293 242.257 199.644 242.041C197.479 241.391 195.314 240.633 193.149 239.767C191.201 239.118 189.036 238.468 186.654 237.819C185.572 237.386 183.407 236.737 180.159 235.871C176.912 235.005 174.639 234.247 173.34 233.597C171.608 232.731 169.876 231.974 168.144 231.324C166.628 230.675 165.221 229.7 163.922 228.401C163.489 227.968 162.948 227.752 162.299 227.752C157.536 225.804 153.098 223.422 148.984 220.608C144.871 217.793 140.649 215.087 136.319 212.489C132.855 210.757 129.391 208.592 125.927 205.994L123.33 204.695C120.948 203.829 119.216 202.747 118.134 201.448C116.835 200.582 115.861 200.041 115.211 199.824C113.912 199.175 112.721 198.309 111.639 197.226C110.556 195.711 108.933 194.412 106.768 193.329L100.922 189.108C98.541 187.376 96.2678 185.427 94.1028 183.262C91.9379 181.097 89.6647 179.041 87.2833 177.092C84.4688 174.711 81.8709 172.221 79.4895 169.623C77.108 167.025 75.1596 163.994 73.6441 160.531C72.9947 159.232 72.2369 158.149 71.3709 157.283C71.3709 157.283 71.0462 157.283 70.3967 157.283L68.773 160.206C68.34 161.505 67.907 162.912 67.474 164.427C67.0411 165.726 66.2833 167.025 65.2009 168.324C64.9844 168.541 64.6596 169.407 64.2266 170.922L63.2524 174.17C62.8194 175.252 62.2782 176.335 61.6287 177.417C60.9792 178.5 60.6545 179.799 60.6545 181.314C60.438 182.613 60.1132 183.804 59.6802 184.886C59.2473 186.185 58.8143 187.484 58.3813 188.783L57.4071 192.68C56.1081 195.061 55.8916 197.768 56.7576 200.798C56.9741 201.664 57.0823 202.855 57.0823 204.371C57.0823 205.237 56.5411 205.67 55.4586 205.67H54.1596C52.4277 205.02 50.9122 204.154 49.6133 203.072C48.3143 202.206 47.2318 200.907 46.3659 199.175C44.2009 194.628 43.5514 190.19 44.4174 185.86C44.8504 183.479 45.3916 181.206 46.0411 179.041C46.6906 177.092 47.3401 174.927 47.9896 172.546C49.072 169.515 50.1545 166.701 51.237 164.103C52.3195 161.505 53.4019 158.69 54.4844 155.659L57.4071 147.866C56.9741 147.649 56.6493 147.433 56.4328 147.216C56.2163 147 55.9999 146.891 55.7834 146.891C54.9174 146.891 54.1596 147 53.5102 147.216C52.8607 147.216 52.103 147.216 51.237 147.216C50.804 147.216 49.505 147.324 47.3401 147.541C45.3916 147.541 44.0927 147.433 43.4432 147.216C41.7112 146.783 40.4123 146.567 39.5463 146.567C38.8968 146.35 38.0308 146.242 36.9484 146.242C35.8659 146.242 34.6752 146.242 33.3762 146.242C32.2937 146.025 31.2113 145.592 30.1288 144.943C30.1288 144.726 30.0205 144.618 29.804 144.618C29.804 144.402 29.804 144.185 29.804 143.969L30.1288 143.644C30.5618 143.644 30.8865 143.644 31.103 143.644C31.3195 143.427 31.536 143.319 31.7525 143.319H37.9226C40.9535 143.536 43.9844 143.427 47.0153 142.994C50.2628 142.561 53.4019 141.912 56.4328 141.046C56.8658 141.046 57.7318 140.83 59.0308 140.397C60.5462 140.18 61.6287 139.314 62.2782 137.799L66.8246 128.706L71.0462 119.288C72.7782 115.391 74.6184 111.603 76.5668 107.922C78.5153 104.026 80.3555 100.02 82.0874 95.907C83.1699 93.0925 84.3606 90.3864 85.6596 87.7884C87.175 84.974 88.5822 82.1596 89.8812 79.3451C90.3142 78.4792 90.6389 77.6132 90.8554 76.7472C91.2884 75.8812 91.7214 75.0153 92.1544 74.1493L99.2987 56.938C99.7317 56.072 100.165 55.206 100.598 54.3401C101.031 53.2576 101.031 52.1751 100.598 51.0927V50.4432C101.247 45.8968 103.845 44.0566 108.391 44.9226C109.474 45.3556 110.448 45.7885 111.314 46.2215C112.18 46.438 113.046 46.871 113.912 47.5205C116.077 48.8195 117.484 50.5514 118.134 52.7164C118.567 54.2318 118.458 55.5308 117.809 56.6133C116.726 60.2937 115.428 63.8658 113.912 67.3297C112.613 70.5771 111.098 73.8246 109.366 77.072C107.85 80.3194 106.335 83.5668 104.819 86.8142C103.52 90.0616 101.788 93.2008 99.6234 96.2317C98.7575 98.6131 97.675 100.778 96.376 102.727C95.2936 104.675 94.2111 106.84 93.1286 109.221L86.6338 122.211C85.5513 123.943 84.7936 125.675 84.3606 127.407C84.1441 128.922 83.6029 130.438 82.7369 131.953C83.3864 132.386 84.1441 132.386 85.0101 131.953L94.4276 128.706L97.9997 126.757C99.0822 125.675 100.165 124.917 101.247 124.484C102.546 123.835 103.737 123.293 104.819 122.861C107.201 121.778 109.474 120.587 111.639 119.288C113.804 117.989 116.077 116.582 118.458 115.067C120.407 113.984 122.355 112.902 124.304 111.819C126.469 110.52 128.525 109.221 130.474 107.922C132.855 106.407 135.129 105 137.293 103.701C139.675 102.402 141.948 100.886 144.113 99.1544C145.628 98.0719 147.144 97.0977 148.659 96.2317C150.175 95.1492 151.799 94.0668 153.531 92.9843C156.994 91.2523 160.242 89.4121 163.273 87.4637C166.304 85.2988 169.335 83.0256 172.366 80.6441L177.561 77.072C179.077 76.206 180.484 75.34 181.783 74.474C183.298 73.3916 184.706 72.0926 186.005 70.5771C185.788 70.1441 186.654 69.2782 188.603 67.9792C190.551 66.6802 191.742 65.706 192.175 65.0565C193.257 63.9741 194.231 62.8916 195.097 61.8091C195.963 60.5102 196.829 59.3194 197.695 58.237C198.778 56.7215 199.752 55.3143 200.618 54.0153C201.7 52.7164 202.783 51.4174 203.865 50.1184C206.247 47.0875 208.195 43.9483 209.711 40.7009C211.226 37.4535 212.2 33.9896 212.633 30.3092C213.066 27.9278 213.066 25.6546 212.633 23.4896C212.417 21.3247 211.659 19.1597 210.36 16.9948C209.494 15.4793 208.412 14.3969 207.113 13.7474C206.896 13.7474 206.355 13.5309 205.489 13.0979C205.056 12.8814 203.974 12.6649 202.242 12.4484C200.726 12.2319 199.103 12.0154 197.371 11.7989C195.639 11.366 193.907 11.1495 192.175 11.1495C190.659 10.933 189.577 10.933 188.927 11.1495C186.979 11.5824 185.03 11.7989 183.082 11.7989C181.134 11.5824 179.185 11.5824 177.237 11.7989C174.206 12.2319 171.824 12.7732 170.092 13.4226C168.36 13.8556 166.737 14.0721 165.221 14.0721C163.922 14.0721 162.623 14.1804 161.324 14.3969C160.242 14.6134 159.159 14.9381 158.077 15.3711C156.778 15.8041 155.371 16.1288 153.855 16.3453C152.556 16.5618 151.366 16.7783 150.283 16.9948L145.412 17.969C144.762 18.1855 143.247 18.6185 140.866 19.268C138.701 19.9175 136.319 20.7834 133.721 21.8659C131.34 22.7319 128.958 23.5979 126.577 24.4639C124.412 25.3298 122.897 26.0876 122.031 26.737C121.165 27.17 120.407 27.603 119.757 28.036C119.108 28.2525 118.35 28.469 117.484 28.6855C114.67 29.768 111.964 30.9587 109.366 32.2576C106.984 33.3401 104.495 34.5308 101.897 35.8298C99.5152 36.9123 97.242 38.103 95.0771 39.402C92.9121 40.7009 90.6389 41.9999 88.2575 43.2989C87.8245 43.5154 87.2833 43.8401 86.6338 44.2731C86.2008 44.4896 85.7678 44.8143 85.3348 45.2473L75.9173 52.0669C72.6699 54.6648 69.4225 57.2627 66.1751 59.8607C62.9277 62.2421 59.8967 64.9483 57.0823 67.9792L51.237 73.1751C49.938 74.2575 48.639 75.4483 47.3401 76.7472C46.2576 77.8297 45.1751 79.0204 44.0927 80.3194C42.3607 82.2678 40.6288 84.3245 38.8968 86.4895C37.1649 88.6544 35.3246 90.7111 33.3762 92.6596C32.9432 93.0925 32.5102 93.6338 32.0772 94.2833C31.8607 94.7162 31.536 95.2575 31.103 95.907C29.3711 99.3709 27.4226 102.51 25.2577 105.324C24.6082 106.407 23.9587 107.598 23.3092 108.897C22.6597 110.196 22.1185 111.495 21.6855 112.794L20.0618 116.041C19.6288 116.907 19.1958 117.773 18.7628 118.639C18.5463 119.505 18.2216 120.479 17.7886 121.562C16.4896 124.592 15.6237 127.623 15.1907 130.654C14.7577 133.469 14 136.391 12.9175 139.422C12.268 141.587 12.0515 143.644 12.268 145.592C12.701 147.541 13.2422 149.489 13.8917 151.438C14.1082 152.304 14.7577 152.953 15.8402 153.386C17.5721 154.252 19.1958 154.902 20.7113 155.335C22.4432 155.768 24.2834 155.768 26.2319 155.335C26.6649 155.118 27.3144 155.01 28.1803 155.01L29.1546 155.984V156.309C29.1546 156.525 29.0463 156.742 28.8298 156.958L27.5309 157.933C24.9329 159.015 22.768 160.422 21.036 162.154C19.9536 163.67 18.6546 163.994 17.1391 163.128C15.4072 162.912 13.6752 162.046 11.9433 160.531C11.0773 159.665 10.4278 159.123 9.99482 158.907C7.18039 157.175 5.23194 154.469 4.14947 150.788C3.71649 149.706 3.2835 148.515 2.85051 147.216C2.41752 145.917 2.09278 144.618 1.87628 143.319C1.87628 142.237 1.76804 141.154 1.55154 140.072C1.33505 138.989 1.01031 137.907 0.577318 136.824C-0.288659 134.01 -0.180412 130.654 0.902059 126.757C1.98453 122.861 3.2835 119.18 4.79896 115.716C6.53091 112.036 8.69585 108.572 11.2938 105.324C11.7268 102.51 12.8092 100.67 14.5412 99.8039C14.1082 102.185 13.0257 104.026 11.2938 105.324C11.2938 107.056 10.7525 108.788 9.67008 110.52C9.23709 111.386 9.23709 112.144 9.67008 112.794C10.1031 112.577 10.5361 112.036 10.969 111.17C12.0515 108.788 13.2422 106.515 14.5412 104.35C16.0567 101.969 17.6804 99.5874 19.4123 97.2059C20.9278 95.2575 22.335 93.309 23.634 91.3606C24.9329 89.1956 26.4484 87.0307 28.1803 84.8658C29.4793 83.1338 30.7783 81.4019 32.0772 79.6699C33.3762 77.9379 34.8917 76.3142 36.6236 74.7988L39.2215 71.8761L41.17 69.2782C42.6855 67.9792 44.0927 66.572 45.3916 65.0565C46.6906 63.5411 47.9896 62.1339 49.2885 60.8349C51.0205 59.1029 52.7524 57.5875 54.4844 56.2885C56.2163 54.9896 57.9483 53.6906 59.6802 52.3916C60.5462 51.7421 61.304 51.0927 61.9534 50.4432C62.8194 49.7937 63.5772 48.9277 64.2266 47.8452C64.2266 47.4123 64.1184 47.0875 63.9019 46.871C63.9019 46.6545 64.2266 46.2215 64.8761 45.5721L74.9431 38.4277C74.7266 38.4277 74.9431 38.103 75.5926 37.4535H75.9173C77.4328 36.371 79.3812 35.0721 81.7627 33.5566C84.3606 31.8247 85.8761 30.8504 86.309 30.6339C90.2059 29.1185 94.1028 26.9535 97.9997 24.1391C98.4327 23.7061 98.7575 23.4896 98.974 23.4896C100.706 22.6237 102.763 21.5412 105.144 20.2422C107.525 18.9433 109.907 18.0773 112.288 17.6443C113.154 17.4278 113.912 17.1031 114.562 16.6701C115.211 16.2371 115.969 15.8041 116.835 15.3711C119.216 13.8556 121.598 12.6649 123.979 11.7989C126.577 10.7165 129.283 9.95874 132.098 9.52575C133.83 9.09276 135.453 8.76801 136.969 8.55152C138.484 8.33503 140 7.7938 141.515 6.92782C141.948 6.49484 142.381 6.27834 142.814 6.27834C143.247 6.27834 143.68 6.17009 144.113 5.95359C146.494 5.5206 148.659 5.08762 150.608 4.65464C152.556 4.00515 154.721 3.46392 157.103 3.03093C157.752 2.81443 158.618 2.70617 159.701 2.70617C160.35 2.70617 160.891 2.81443 161.324 3.03093C161.974 3.03093 162.623 2.92268 163.273 2.70617L175.613 0.432991C175.829 0.432991 176.912 0.324746 178.86 0.108255C181.025 -0.10825 182.757 -4.88741e-06 184.056 0.432991C184.922 0.649482 186.438 0.757734 188.603 0.757734C189.685 0.757734 190.768 0.865979 191.85 1.08247C192.932 1.08247 194.015 1.19072 195.097 1.40721C198.128 1.8402 200.835 2.59793 203.216 3.6804C205.814 4.76288 208.304 5.95359 210.685 7.25256C211.767 7.68555 212.417 8.11854 212.633 8.55152C215.664 11.3659 218.262 14.3969 220.427 17.6443C222.809 20.6752 224.324 24.3556 224.974 28.6855C224.974 28.902 224.974 29.1185 224.974 29.335C225.19 29.5515 225.298 29.8762 225.298 30.3092C225.082 32.0412 225.082 33.3401 225.298 34.2061C225.515 34.8556 225.407 35.7216 224.974 36.804C224.108 38.969 223.675 40.5927 223.675 41.6752C223.675 44.4896 223.025 46.9793 221.726 49.1442C221.293 50.2267 220.86 51.3091 220.427 52.3916C219.994 53.2576 219.561 54.2318 219.128 55.3143C218.695 56.3968 218.154 57.2627 217.505 57.9122C215.989 59.6442 214.582 61.4844 213.283 63.4328C211.984 65.1648 210.685 66.8967 209.386 68.6287L206.788 71.5514C205.056 73.0668 203.324 74.5823 201.592 76.0977C200.077 77.6132 198.453 79.2369 196.721 80.9689C191.742 86.1647 186.221 90.7111 180.159 94.608C178.211 95.6905 176.371 96.5565 174.639 97.2059C173.556 97.6389 172.69 98.2884 172.041 99.1544C171.175 100.237 170.201 101.211 169.118 102.077C168.036 102.727 166.953 103.268 165.871 103.701C165.221 104.134 164.463 104.459 163.598 104.675C162.948 104.891 162.407 105.324 161.974 105.974C159.159 108.572 156.237 109.979 153.206 110.196C151.907 110.629 151.041 111.062 150.608 111.495C149.525 112.794 147.793 113.876 145.412 114.742C144.762 114.958 144.113 115.283 143.464 115.716C143.031 115.933 142.598 116.257 142.165 116.69L135.345 120.912C134.046 121.778 132.639 122.644 131.123 123.51C129.824 124.159 128.417 124.701 126.902 125.134C123.221 126.866 119.541 128.598 115.861 130.33C112.18 132.062 108.608 134.01 105.144 136.175C104.278 137.041 103.629 137.474 103.196 137.474C100.598 137.907 98.2162 138.881 96.0513 140.397C93.8863 141.696 91.5049 142.561 88.907 142.994C88.474 142.994 87.8245 143.211 86.9585 143.644C85.6596 144.51 85.3348 145.701 85.9843 147.216C86.4173 148.082 86.8503 148.732 87.2833 149.165L93.7781 157.608C94.8606 159.123 96.0513 160.639 97.3503 162.154C98.6492 163.453 100.165 164.752 101.897 166.051L113.587 176.443L118.458 180.989C122.788 184.237 127.226 187.268 131.773 190.082C136.536 193.113 141.082 196.144 145.412 199.175C148.226 200.474 150.824 201.989 153.206 203.721C155.587 205.453 158.185 206.969 161 208.268C164.463 209.999 167.819 211.731 171.067 213.463C174.314 215.412 177.778 217.144 181.458 218.659L184.706 220.608C186.438 221.474 187.737 221.907 188.603 221.907C189.685 222.123 190.768 222.448 191.85 222.881C193.149 223.314 194.34 223.747 195.422 224.18C197.804 225.262 200.077 226.128 202.242 226.778C204.623 227.644 207.005 227.968 209.386 227.752C209.819 227.752 210.144 227.752 210.36 227.752C210.793 227.968 211.226 228.077 211.659 228.077C214.041 228.726 216.422 228.943 218.804 228.726C221.401 228.726 223.891 228.726 226.273 228.726H227.247C230.278 228.077 233.092 227.103 235.69 225.804C238.505 224.721 241.102 223.097 243.484 220.932C245.216 219.417 246.731 217.793 248.03 216.061C249.329 214.329 250.412 212.273 251.278 209.891C251.711 208.809 252.144 207.835 252.577 206.969C253.226 206.103 253.767 205.237 254.2 204.371C254.417 204.154 254.742 204.046 255.175 204.046ZM199.644 64.4071C198.345 64.6235 197.587 65.3813 197.371 66.6802L197.695 67.005C198.778 67.005 199.536 66.3555 199.969 65.0565V64.4071H199.644ZM191.85 73.4998L192.175 73.8246C193.257 73.6081 194.015 72.8503 194.448 71.5514C194.448 71.5514 194.34 71.4431 194.123 71.2266C194.123 71.0101 194.015 70.9019 193.798 70.9019C193.798 70.9019 193.798 71.0101 193.798 71.2266C193.365 71.4431 192.716 71.9843 191.85 72.8503V73.4998ZM165.221 94.9327C165.221 95.1492 165.221 95.2575 165.221 95.2575C165.438 95.2575 165.546 95.3657 165.546 95.5822H166.195L173.015 90.3864C173.448 89.9534 173.881 89.3039 174.314 88.4379L170.742 90.0616C170.092 90.4946 169.443 90.6029 168.793 90.3864C168.144 90.1699 167.494 90.4946 166.845 91.3606L165.221 94.9327ZM157.103 99.8039C157.103 100.237 157.211 100.562 157.427 100.778H157.752C159.268 100.345 160.35 99.8039 161 99.1544C161.649 98.2884 161.433 97.3142 160.35 96.2317L157.103 99.8039ZM145.087 106.299C144.438 106.732 143.788 107.273 143.139 107.922C142.489 108.355 141.948 109.005 141.515 109.871C142.165 109.654 142.706 109.546 143.139 109.546C143.788 109.546 144.329 109.33 144.762 108.897C146.061 108.464 147.252 107.922 148.335 107.273C149.634 106.407 150.824 105.649 151.907 105C152.34 104.567 152.665 104.35 152.881 104.35C153.531 103.701 153.531 103.16 152.881 102.727H151.907L145.087 106.299ZM141.515 109.871C138.701 110.52 136.536 112.036 135.02 114.417C138.268 113.768 140.433 112.252 141.515 109.871ZM122.68 121.237L123.005 121.562C127.118 120.046 131.015 117.773 134.696 114.742C134.696 114.742 134.804 114.634 135.02 114.417C133.721 114.417 132.747 114.525 132.098 114.742L122.68 120.587V121.237ZM103.845 130.979C103.629 130.979 103.52 131.087 103.52 131.304C103.52 131.52 103.52 131.629 103.52 131.629C103.737 131.629 103.845 131.737 103.845 131.953C105.361 131.953 106.66 131.412 107.742 130.33V129.68C107.525 129.68 107.417 129.68 107.417 129.68C107.417 129.464 107.309 129.355 107.092 129.355L103.845 130.979ZM95.0771 135.525C94.8606 135.525 94.7523 135.742 94.7523 136.175C94.9688 136.175 95.0771 136.283 95.0771 136.5C95.2936 136.5 95.5101 136.5 95.7265 136.5L98.6492 134.876C98.6492 134.876 98.7575 134.768 98.974 134.551C98.7575 134.335 98.6492 134.118 98.6492 133.902C97.9997 134.335 97.3503 134.659 96.7008 134.876C96.0513 134.876 95.5101 135.092 95.0771 135.525ZM90.8554 136.824C89.5565 137.257 88.6905 137.582 88.2575 137.799C87.8245 137.799 87.0668 138.34 85.9843 139.422C87.7163 139.206 88.7987 139.098 89.2317 139.098C89.6647 138.881 90.3142 138.448 91.1802 137.799C91.1802 137.799 91.2884 137.582 91.5049 137.149C91.0719 137.149 90.8554 137.041 90.8554 136.824ZM152.556 206.319V205.994L144.113 200.474L139.567 197.551C138.917 197.118 138.268 196.793 137.618 196.577C137.185 196.36 136.644 196.144 135.994 195.927C135.561 195.927 135.237 196.036 135.02 196.252C135.02 196.685 135.129 197.01 135.345 197.226L146.711 205.02C147.577 205.453 148.443 205.778 149.309 205.994C150.175 206.211 151.041 206.536 151.907 206.969H152.556V206.319ZM228.546 234.572C228.762 234.572 228.87 234.463 228.87 234.247C228.87 234.03 228.762 233.922 228.546 233.922C228.113 233.706 227.572 233.597 226.922 233.597C223.891 234.03 220.968 234.03 218.154 233.597C217.721 233.381 217.18 233.273 216.53 233.273C216.097 233.489 215.664 233.489 215.231 233.273C213.716 233.273 212.633 233.164 211.984 232.948C209.386 231.865 206.788 230.999 204.19 230.35C201.592 229.917 198.994 229.267 196.396 228.401C192.716 227.319 189.036 226.02 185.355 224.505C181.675 223.206 178.103 221.582 174.639 219.633L165.546 214.113C163.165 212.381 160.35 210.757 157.103 209.242L156.453 209.891C156.237 209.891 156.237 209.999 156.453 210.216C157.536 211.515 158.618 212.489 159.701 213.139L170.417 219.633C173.448 221.365 176.262 222.881 178.86 224.18L189.902 229.051C192.499 230.35 195.097 231.324 197.695 231.974C200.51 232.84 203.324 233.597 206.139 234.247C208.304 234.68 210.468 235.005 212.633 235.221C214.798 235.438 216.855 235.762 218.804 236.195L227.572 235.221C227.788 235.221 228.113 235.005 228.546 234.572ZM18.7628 94.2833C18.1134 96.6647 16.7061 98.5049 14.5412 99.8039L15.1907 97.5307L18.1134 92.9843C18.5463 93.8503 18.7628 94.2833 18.7628 94.2833Z" fill="#2C2C2C"/>
</svg>
